<svg class="header-logo__mobile" width="159" height="102" viewBox="0 0 159 102" fill="none" xmlns="http://www.w3.org/2000/svg">
                <mask id="mask00" mask-type="alpha" maskUnits="userSpaceOnUse" x="48" y="29" width="39" height="30">
                    <path d="M73.6774 43.6859L48.4422 29.209L86.2824 36.4097L73.6942 58.2048L73.6774 43.6859Z" fill="#71B4E1"></path>
                </mask>
                <g mask="url(#mask00)">
                    <rect x="47.0101" y="28.0681" width="40.0489" height="16.9905" fill="#A0CDEB"></rect>
                    <path d="M73.6942 58.2051L86.2824 36.4099L73.6774 43.6861L73.6942 58.2051Z" fill="#0055A0"></path>
                </g>
                <mask id="mask11" mask-type="alpha" maskUnits="userSpaceOnUse" x="35" y="50" width="39" height="30">
                    <path d="M61.0892 65.4728L35.854 50.9958L73.6942 58.2049L61.1061 80L61.0892 65.4728Z" fill="#C5CAC6"></path>
                </mask>
                <g mask="url(#mask11)">
                    <rect x="34.874" y="49.9131" width="40.0489" height="16.9905" fill="#E1E6E6"></rect>
                    <path d="M61.1062 79.9999L73.6943 58.2048L61.0893 65.4727L61.1062 79.9999Z" fill="#AFAFAF"></path>
                </g>
                <mask id="mask22" mask-type="alpha" maskUnits="userSpaceOnUse" x="10" y="22" width="39" height="29">
                    <path d="M35.8372 36.4769L10.6019 22L48.4422 29.2091L35.8541 50.9958L35.8372 36.4769Z" fill="#F73624"></path>
                </mask>
                <g mask="url(#mask22)">
                    <rect x="9.38831" y="20.7864" width="40.0489" height="16.9905" fill="#F7403A"></rect>
                    <path d="M35.8541 50.9957L48.4421 29.209L35.8372 36.4768L35.8541 50.9957Z" fill="#AA272F"></path>
                </g>
                <path d="M86.6041 71.563H91.5369L90.33 67.5971L89.1755 63.0761H88.9918L87.798 67.5971L86.6041 71.563ZM92.6651 75.5289H85.4759L84.2427 79.4947C84.1247 79.9045 83.9672 80.0896 83.3637 80.0896H79.6904C79.2575 80.0896 79.1657 79.7724 79.2575 79.4683L85.817 59.639C86.2499 58.1848 86.814 57.9337 88.0997 57.9072H89.9888C91.4057 57.9072 91.9304 58.0923 92.429 59.639L98.9884 79.4683C99.0803 79.7195 98.9884 80.0896 98.5818 80.0896H94.8428C94.3706 80.0896 94.0689 80.0896 93.9377 79.5873L92.6651 75.5289Z" fill="white"></path>
                <path d="M114.318 75.2508C114.908 74.9996 115.092 75.1583 115.289 75.6342L116.351 77.908C116.64 78.5028 116.548 78.7276 116.168 78.9523C113.958 80.2057 111.447 80.8187 108.913 80.7237C102.078 80.7237 99.0211 76.4538 99.0211 69.4342C99.0211 62.4146 103.114 57.92 109.136 57.92C111.265 57.8232 113.384 58.2784 115.289 59.2419C115.761 59.5063 115.826 59.665 115.538 60.3524L114.567 62.5336C114.344 63.102 114.226 63.2343 113.622 63.0095C112.264 62.4732 110.818 62.1952 109.359 62.1899C105.895 62.1899 104.046 65.2833 104.046 69.4078C104.046 73.5323 105.358 76.3216 109.477 76.3216C111.145 76.2695 112.788 75.8971 114.318 75.2244" fill="white"></path>
                <path d="M132.107 65.2837L129.312 70.0296L124.065 78.6884C123.343 79.8649 123.002 80.0103 121.703 80.0103H120.457C118.817 80.0103 118.41 79.1643 118.41 77.8291V58.5153C118.41 58.0658 118.607 57.9072 119.066 57.9072H122.425C123.002 57.9072 123.094 58.0394 123.094 58.5153V72.7792H123.278L125.901 68.3507L131.333 59.3746C132.054 58.1716 132.408 57.9469 133.655 57.9469H134.967C136.501 57.9469 137 58.5153 137 60.1678V79.5212C137 79.9574 136.816 80.1161 136.344 80.1161H132.986C132.422 80.1161 132.29 79.9971 132.29 79.5212V65.2837H132.107Z" fill="white"></path>
            </svg>
                

