<svg version="1.1" viewBox="0.0 0.0 230.0 75.0" fill="none" stroke="none" stroke-linecap="square" stroke-miterlimit="10" xmlns:xlink="http://www.w3.org/1999/xlink" xmlns="http://www.w3.org/2000/svg"><clipPath id="p.0"><path d="m0 0l230.0 0l0 75.0l-230.0 0l0 -75.0z" clip-rule="nonzero"/></clipPath><g clip-path="url(#p.0)"><path fill="#000000" fill-opacity="0.0" d="m0 0l230.0 0l0 75.0l-230.0 0z" fill-rule="evenodd"/><path fill="#000000" fill-opacity="0.0" d="m1.5942649 22.203285l230.01575 0l0 60.125984l-230.01575 0z" fill-rule="evenodd"/><path fill="#6d9eeb" d="m12.45364 55.779285l0 -23.046875l21.21875 0l0 4.265625l-16.96875 0l0 5.125l13.640625 0l0 4.28125l-13.640625 0l0 5.125l16.96875 0l0 4.25l-21.21875 0zm23.74556 0l0 -23.046875l4.640625 0l8.34375 9.953125l8.328125 -9.953125l4.671875 0l0 23.046875l-4.265625 0l0 -16.890625l-8.734375 10.390625l-8.765625 -10.359375l0 16.859375l-4.21875 0zm29.242931 0l0 -23.046875l4.1875 0l0 23.046875l-4.1875 0zm6.848007 0l0 -23.046875l4.1875 0l0 23.046875l-4.1875 0zm7.363632 0l0 -18.59375q0 -1.21875 0.609375 -2.21875q0.609375 -1.015625 1.609375 -1.625q1.015625 -0.609375 2.21875 -0.609375l14.125 0q1.203125 0 2.234375 0.609375q1.03125 0.609375 1.625 1.625q0.609375 1.0 0.609375 2.21875l0 18.59375l-4.25 0l0 -7.75l-14.5625 0l0 7.75l-4.21875 0l0 0zm4.21875 -11.96875l14.5625 0l0 -6.4375q0 -0.15625 -0.125 -0.265625q-0.125 -0.109375 -0.296875 -0.109375l-13.75 0q-0.171875 0 -0.28125 0.109375q-0.109375 0.109375 -0.109375 0.265625l0 6.4375l0 0zm22.40831 11.96875l0 0l0 -4.1875l4.1875 0l0 4.1875l-4.1875 0zm7.3890076 0l0 -18.59375q0 -1.21875 0.609375 -2.21875q0.609375 -1.015625 1.609375 -1.625q1.015625 -0.609375 2.21875 -0.609375l14.125008 0q1.203125 0 2.234375 0.609375q1.03125 0.609375 1.625 1.625q0.609375 1.0 0.609375 2.21875l0 18.59375l-4.25 0l0 -7.75l-14.562508 0l0 7.75l-4.21875 0l0 0zm4.21875 -11.96875l14.562508 0l0 -6.4375q0 -0.15625 -0.125 -0.265625q-0.125 -0.109375 -0.296875 -0.109375l-13.750008 0q-0.171875 0 -0.28125 0.109375q-0.109375 0.109375 -0.109375 0.265625l0 6.4375l0 0zm22.017693 11.96875l0 -23.046875l4.1875 0l0 23.046875l-4.1875 0zm21.436905 0q-1.21875 0 -2.234375 -0.609375q-1.0 -0.609375 -1.609375 -1.609375q-0.59375 -1.015625 -0.59375 -2.234375l0 -1.75l4.21875 0l0 1.5625q0 0.15625 0.109375 0.28125q0.109375 0.109375 0.265625 0.109375l13.796875 0q0.15625 0 0.265625 -0.109375q0.125 -0.125 0.125 -0.28125l0 -4.390625q0 -0.15625 -0.125 -0.25q-0.109375 -0.09375 -0.265625 -0.09375l-13.953125 0q-1.21875 0 -2.234375 -0.609375q-1.0 -0.609375 -1.609375 -1.609375q-0.59375 -1.015625 -0.59375 -2.265625l0 -4.734375q0 -1.21875 0.59375 -2.21875q0.609375 -1.015625 1.609375 -1.625q1.015625 -0.609375 2.234375 -0.609375l14.140625 0q1.21875 0 2.21875 0.609375q1.015625 0.609375 1.625 1.625q0.609375 1.0 0.609375 2.21875l0 1.765625l-4.25 0l0 -1.578125q0 -0.15625 -0.125 -0.265625q-0.109375 -0.109375 -0.265625 -0.109375l-13.796875 0q-0.15625 0 -0.265625 0.109375q-0.109375 0.109375 -0.109375 0.265625l0 4.390625q0 0.15625 0.109375 0.265625q0.109375 0.09375 0.265625 0.09375l13.984375 0q1.21875 0 2.21875 0.609375q1.015625 0.59375 1.625 1.609375q0.609375 1.0 0.609375 2.25l0 4.734375q0 1.21875 -0.609375 2.234375q-0.609375 1.0 -1.625 1.609375q-1.0 0.609375 -2.21875 0.609375l-14.140625 0zm21.635178 0l0 -23.046875l4.1875 0l0 23.046875l-4.1875 0zm7.301132 0l0 -23.015625l18.5625 0q1.203125 0 2.21875 0.609375q1.03125 0.609375 1.640625 1.625q0.609375 1.0 0.609375 2.21875l0 6.203125q0 1.21875 -0.609375 2.25q-0.609375 1.015625 -1.640625 1.609375q-1.015625 0.59375 -2.21875 0.59375l-14.34375 0.03125l0 7.875l-4.21875 0zm4.609375 -12.15625l13.75 0q0.15625 0 0.28125 -0.09375q0.140625 -0.109375 0.140625 -0.265625l0 -5.890625q0 -0.15625 -0.140625 -0.265625q-0.125 -0.109375 -0.28125 -0.109375l-13.75 0q-0.171875 0 -0.28125 0.109375q-0.109375 0.109375 -0.109375 0.265625l0 5.890625q0 0.15625 0.109375 0.265625q0.109375 0.09375 0.28125 0.09375z" fill-rule="nonzero"/></g></svg>