<svg version="1.1" viewBox="0.0 0.0 230.0 75.0" fill="none" stroke="none" stroke-linecap="square" stroke-miterlimit="10" xmlns:xlink="http://www.w3.org/1999/xlink" xmlns="http://www.w3.org/2000/svg"><clipPath id="p.0"><path d="m0 0l230.0 0l0 75.0l-230.0 0l0 -75.0z" clip-rule="nonzero"/></clipPath><g clip-path="url(#p.0)"><path fill="#000000" fill-opacity="0.0" d="m0 0l230.0 0l0 75.0l-230.0 0z" fill-rule="evenodd"/><path fill="#000000" fill-opacity="0.0" d="m1.5942649 22.203285l230.01575 0l0 60.125984l-230.01575 0z" fill-rule="evenodd"/><path fill="#6d9eeb" d="m12.45364 55.779285l0 -23.046875l21.109375 0l0 3.46875l-17.625 0l0 6.296875l14.171875 0l0 3.515625l-14.171875 0l0 6.3125l17.625 0l0 3.453125l-21.109375 0zm23.649551 0l0 -23.046875l4.125 0l8.921875 10.625l8.90625 -10.625l4.15625 0l0 23.046875l-3.484375 0l0 -18.40625l-9.578125 11.390625l-9.59375 -11.390625l0 18.40625l-3.453125 0zm29.602306 0l0 -23.046875l3.453125 0l0 23.046875l-3.453125 0zm6.848007 0l0 -23.046875l3.453125 0l0 23.046875l-3.453125 0zm7.004257 0l0 -18.875q0 -1.15625 0.546875 -2.09375q0.5625 -0.953125 1.5 -1.515625q0.953125 -0.5625 2.109375 -0.5625l14.6875 0q1.15625 0 2.109375 0.5625q0.96875 0.5625 1.515625 1.515625q0.5625 0.9375 0.5625 2.09375l0 18.875l-3.484375 0l0 -8.0625l-16.09375 0l0 8.0625l-3.453125 0l0 0zm3.453125 -11.515625l16.09375 0l0 -7.265625q0 -0.328125 -0.234375 -0.5625q-0.21875 -0.234375 -0.5625 -0.234375l-14.5 0q-0.3125 0 -0.5625 0.234375q-0.234375 0.234375 -0.234375 0.5625l0 7.265625l0 0zm23.173935 11.515625l0 0l0 -3.453125l3.453125 0l0 3.453125l-3.453125 0zm7.1970215 0l0 -18.875q0 -1.15625 0.546875 -2.09375q0.5625 -0.953125 1.5 -1.515625q0.953125 -0.5625 2.109375 -0.5625l14.687508 0q1.15625 0 2.109375 0.5625q0.96875 0.5625 1.515625 1.515625q0.5625 0.9375 0.5625 2.09375l0 18.875l-3.484375 0l0 -8.0625l-16.093758 0l0 8.0625l-3.453125 0l0 0zm3.453125 -11.515625l16.093758 0l0 -7.265625q0 -0.328125 -0.234375 -0.5625q-0.21875 -0.234375 -0.5625 -0.234375l-14.500008 0q-0.3125 0 -0.5625 0.234375q-0.234375 0.234375 -0.234375 0.5625l0 7.265625l0 0zm23.142693 11.515625l0 -23.046875l3.453125 0l0 23.046875l-3.453125 0zm20.253021 0q-1.125 0 -2.09375 -0.5625q-0.953125 -0.5625 -1.515625 -1.5q-0.5625 -0.953125 -0.5625 -2.09375l0 -1.34375l3.46875 0l0 1.25q0 0.3125 0.234375 0.5625q0.234375 0.234375 0.5625 0.234375l14.53125 0q0.3125 0 0.53125 -0.234375q0.234375 -0.25 0.234375 -0.5625l0 -4.734375q0 -0.359375 -0.234375 -0.5625q-0.21875 -0.21875 -0.53125 -0.21875l-14.625 0q-1.125 0 -2.09375 -0.5625q-0.953125 -0.578125 -1.515625 -1.515625q-0.5625 -0.953125 -0.5625 -2.109375l0 -4.921875q0 -1.15625 0.5625 -2.09375q0.5625 -0.953125 1.515625 -1.515625q0.96875 -0.5625 2.09375 -0.5625l14.71875 0q1.109375 0 2.0625 0.5625q0.96875 0.5625 1.53125 1.515625q0.5625 0.9375 0.5625 2.09375l0 1.34375l-3.484375 0l0 -1.25q0 -0.328125 -0.234375 -0.5625q-0.21875 -0.234375 -0.53125 -0.234375l-14.53125 0q-0.328125 0 -0.5625 0.234375q-0.234375 0.234375 -0.234375 0.5625l0 4.734375q0 0.34375 0.234375 0.5625q0.234375 0.203125 0.5625 0.203125l14.625 0q1.109375 0 2.0625 0.578125q0.96875 0.578125 1.53125 1.53125q0.5625 0.9375 0.5625 2.078125l0 4.9375q0 1.140625 -0.5625 2.09375q-0.5625 0.9375 -1.53125 1.5q-0.953125 0.5625 -2.0625 0.5625l-14.71875 0zm22.243057 0l0 -23.046875l3.453125 0l0 23.046875l-3.453125 0zm6.941757 0l0 -23.015625l18.84375 0q1.15625 0 2.109375 0.578125q0.96875 0.578125 1.515625 1.53125q0.5625 0.9375 0.5625 2.0625l0 6.453125q0 1.15625 -0.5625 2.109375q-0.546875 0.9375 -1.515625 1.5q-0.953125 0.5625 -2.109375 0.5625l-15.390625 0.03125l0 8.1875l-3.453125 0zm4.25 -11.71875l14.5 0q0.34375 0 0.5625 -0.21875q0.234375 -0.21875 0.234375 -0.546875l0 -6.265625q0 -0.328125 -0.234375 -0.5625q-0.21875 -0.234375 -0.5625 -0.234375l-14.5 0q-0.3125 0 -0.5625 0.234375q-0.234375 0.234375 -0.234375 0.5625l0 6.265625q0 0.328125 0.234375 0.546875q0.25 0.21875 0.5625 0.21875z" fill-rule="nonzero"/></g></svg>