<svg version="1.1" viewBox="0.0 0.0 230.0 75.0" fill="none" stroke="none" stroke-linecap="square" stroke-miterlimit="10" xmlns:xlink="http://www.w3.org/1999/xlink" xmlns="http://www.w3.org/2000/svg"><clipPath id="p.0"><path d="m0 0l230.0 0l0 75.0l-230.0 0l0 -75.0z" clip-rule="nonzero"/></clipPath><g clip-path="url(#p.0)"><path fill="#000000" fill-opacity="0.0" d="m0 0l230.0 0l0 75.0l-230.0 0z" fill-rule="evenodd"/><path fill="#000000" fill-opacity="0.0" d="m1.5942649 22.203285l230.01575 0l0 60.125984l-230.01575 0z" fill-rule="evenodd"/><path fill="#6d9eeb" d="m12.45364 55.779285l0 -23.046875l21.15625 0l0 3.875l-17.28125 0l0 5.703125l13.90625 0l0 3.90625l-13.90625 0l0 5.6875l17.28125 0l0 3.875l-21.15625 0zm23.68155 0l0 -23.046875l4.375 0l8.640625 10.3125l8.609375 -10.3125l4.421875 0l0 23.046875l-3.875 0l0 -17.65625l-9.15625 10.90625l-9.1875 -10.875l0 17.625l-3.828125 0zm29.430431 0l0 -23.046875l3.8125 0l0 23.046875l-3.8125 0zm6.848007 0l0 -23.046875l3.8125 0l0 23.046875l-3.8125 0zm7.176132 0l0 -18.71875q0 -1.1875 0.578125 -2.171875q0.578125 -1.0 1.5625 -1.578125q0.984375 -0.578125 2.171875 -0.578125l14.40625 0q1.1875 0 2.15625 0.578125q0.984375 0.578125 1.5625 1.578125q0.59375 0.984375 0.59375 2.171875l0 18.71875l-3.859375 0l0 -7.90625l-15.328125 0l0 7.90625l-3.84375 0l0 0zm3.84375 -11.75l15.328125 0l0 -6.84375q0 -0.25 -0.1875 -0.40625q-0.171875 -0.171875 -0.421875 -0.171875l-14.15625 0q-0.21875 0 -0.390625 0.171875q-0.171875 0.15625 -0.171875 0.40625l0 6.84375l0 0zm22.78331 11.75l0 0l0 -3.8125l3.796875 0l0 3.8125l-3.796875 0zm7.2930145 0l0 -18.71875q0 -1.1875 0.578125 -2.171875q0.578125 -1.0 1.5625 -1.578125q0.984375 -0.578125 2.171875 -0.578125l14.406258 0q1.1875 0 2.15625 0.578125q0.984375 0.578125 1.5625 1.578125q0.59375 0.984375 0.59375 2.171875l0 18.71875l-3.859375 0l0 -7.90625l-15.328133 0l0 7.90625l-3.84375 0l0 0zm3.84375 -11.75l15.328133 0l0 -6.84375q0 -0.25 -0.1875 -0.40625q-0.171875 -0.171875 -0.421875 -0.171875l-14.156258 0q-0.21875 0 -0.390625 0.171875q-0.171875 0.15625 -0.171875 0.40625l0 6.84375l0 0zm22.580193 11.75l0 -23.046875l3.8125 0l0 23.046875l-3.8125 0zm20.837158 0q-1.1875 0 -2.171875 -0.578125q-0.96875 -0.578125 -1.546875 -1.5625q-0.5625 -1.0 -0.5625 -2.171875l0 -1.546875l3.828125 0l0 1.40625q0 0.265625 0.15625 0.421875q0.171875 0.15625 0.421875 0.15625l14.140625 0q0.265625 0 0.4375 -0.15625q0.171875 -0.15625 0.171875 -0.421875l0 -4.578125q0 -0.21875 -0.171875 -0.375q-0.171875 -0.15625 -0.4375 -0.15625l-14.265625 0q-1.1875 0 -2.171875 -0.59375q-0.96875 -0.59375 -1.546875 -1.5625q-0.5625 -0.984375 -0.5625 -2.171875l0 -4.828125q0 -1.1875 0.5625 -2.171875q0.578125 -1.0 1.546875 -1.578125q0.984375 -0.578125 2.171875 -0.578125l14.4375 0q1.171875 0 2.140625 0.578125q0.984375 0.578125 1.578125 1.578125q0.59375 0.984375 0.59375 2.171875l0 1.53125l-3.875 0l0 -1.40625q0 -0.25 -0.171875 -0.40625q-0.171875 -0.171875 -0.4375 -0.171875l-14.140625 0q-0.25 0 -0.421875 0.171875q-0.15625 0.15625 -0.15625 0.40625l0 4.578125q0 0.21875 0.15625 0.390625q0.171875 0.15625 0.421875 0.15625l14.3125 0q1.171875 0 2.140625 0.59375q0.984375 0.59375 1.578125 1.5625q0.59375 0.96875 0.59375 2.15625l0 4.84375q0 1.171875 -0.59375 2.171875q-0.59375 0.984375 -1.578125 1.5625q-0.96875 0.578125 -2.140625 0.578125l-14.4375 0zm21.94693 0l0 -23.046875l3.8125 0l0 23.046875l-3.8125 0zm7.113632 0l0 -23.015625l18.71875 0q1.1875 0 2.15625 0.59375q0.96875 0.59375 1.5625 1.578125q0.59375 0.96875 0.59375 2.15625l0 6.328125q0 1.15625 -0.59375 2.15625q-0.59375 0.984375 -1.5625 1.5625q-0.96875 0.578125 -2.15625 0.578125l-14.890625 0.03125l0 8.03125l-3.828125 0zm4.40625 -11.9375l14.15625 0q0.25 0 0.421875 -0.15625q0.171875 -0.15625 0.171875 -0.421875l0 -6.078125q0 -0.21875 -0.171875 -0.390625q-0.171875 -0.1875 -0.421875 -0.1875l-14.15625 0q-0.21875 0 -0.40625 0.1875q-0.171875 0.171875 -0.171875 0.390625l0 6.078125q0 0.265625 0.171875 0.421875q0.1875 0.15625 0.40625 0.15625z" fill-rule="nonzero"/></g></svg>