<svg version="1.1" viewBox="0.0 0.0 60.0 60.0" fill="none" stroke="none" stroke-linecap="square" stroke-miterlimit="10" xmlns:xlink="http://www.w3.org/1999/xlink" xmlns="http://www.w3.org/2000/svg"><clipPath id="g30c2767af12_0_0.0"><path d="m0 0l60.0 0l0 60.0l-60.0 0l0 -60.0z" clip-rule="nonzero"/></clipPath><g clip-path="url(#g30c2767af12_0_0.0)"><path fill="#000000" fill-opacity="0.0" d="m0 0l60.0 0l0 60.0l-60.0 0z" fill-rule="evenodd"/><g filter="url(#shadowFilter-g30c2767af12_0_0.1)"><use xlink:href="#g30c2767af12_0_0.1" transform="matrix(1.0 0.0 0.0 1.0 0.0 2.0)"/></g><defs><filter id="shadowFilter-g30c2767af12_0_0.1" filterUnits="userSpaceOnUse"><feGaussianBlur in="SourceAlpha" stdDeviation="2.0" result="blur"/><feComponentTransfer in="blur" color-interpolation-filters="sRGB"><feFuncR type="linear" slope="0" intercept="0.34901962"/><feFuncG type="linear" slope="0" intercept="0.34901962"/><feFuncB type="linear" slope="0" intercept="0.34901962"/><feFuncA type="linear" slope="0.5" intercept="0"/></feComponentTransfer></filter></defs><g id="g30c2767af12_0_0.1"><path fill="#fad57a" d="m50.528355 22.520937l0 0c-0.10770035 -6.749259 -5.4236298 -12.565062 -12.0527115 -13.186063l-0.043525696 1.7175741l0 0c5.6618805 0.59181595 10.21859 5.5927315 10.369549 11.380417z" fill-rule="evenodd"/><path stroke="#fad57a" stroke-width="4.0" stroke-linejoin="round" stroke-linecap="butt" d="m50.528355 22.520937l0 0c-0.10770035 -6.749259 -5.4236298 -12.565062 -12.0527115 -13.186063l-0.043525696 1.7175741l0 0c5.6618805 0.59181595 10.21859 5.5927315 10.369549 11.380417z" fill-rule="evenodd"/></g><g filter="url(#shadowFilter-g30c2767af12_0_0.2)"><use xlink:href="#g30c2767af12_0_0.2" transform="matrix(1.0 0.0 0.0 1.0 0.0 2.0)"/></g><defs><filter id="shadowFilter-g30c2767af12_0_0.2" filterUnits="userSpaceOnUse"><feGaussianBlur in="SourceAlpha" stdDeviation="2.0" result="blur"/><feComponentTransfer in="blur" color-interpolation-filters="sRGB"><feFuncR type="linear" slope="0" intercept="0.34901962"/><feFuncG type="linear" slope="0" intercept="0.34901962"/><feFuncB type="linear" slope="0" intercept="0.34901962"/><feFuncA type="linear" slope="0.5" intercept="0"/></feComponentTransfer></filter></defs><g id="g30c2767af12_0_0.2"><path fill="#748c6a" d="m9.471653 22.520937l0 0c0.10769844 -6.749259 5.423629 -12.565062 12.0527115 -13.186063l0.043525696 1.7175741l0 0c-5.6618824 0.59181595 -10.218591 5.5927315 -10.369548 11.380417z" fill-rule="evenodd"/><path stroke="#748c6a" stroke-width="4.0" stroke-linejoin="round" stroke-linecap="butt" d="m9.471653 22.520937l0 0c0.10769844 -6.749259 5.423629 -12.565062 12.0527115 -13.186063l0.043525696 1.7175741l0 0c-5.6618824 0.59181595 -10.218591 5.5927315 -10.369548 11.380417z" fill-rule="evenodd"/></g><g filter="url(#shadowFilter-g30c2767af12_0_0.3)"><use xlink:href="#g30c2767af12_0_0.3" transform="matrix(1.0 0.0 0.0 1.0 0.0 2.0)"/></g><defs><filter id="shadowFilter-g30c2767af12_0_0.3" filterUnits="userSpaceOnUse"><feGaussianBlur in="SourceAlpha" stdDeviation="2.0" result="blur"/><feComponentTransfer in="blur" color-interpolation-filters="sRGB"><feFuncR type="linear" slope="0" intercept="0.34901962"/><feFuncG type="linear" slope="0" intercept="0.34901962"/><feFuncB type="linear" slope="0" intercept="0.34901962"/><feFuncA type="linear" slope="0.5" intercept="0"/></feComponentTransfer></filter></defs><g id="g30c2767af12_0_0.3"><path fill="#eb5b57" d="m50.528355 37.33989l0 0c-0.10770035 6.74926 -5.4236298 12.565063 -12.0527115 13.186062l-0.043525696 -1.7175713l0 0c5.6618805 -0.59181595 10.21859 -5.5927315 10.369549 -11.380417z" fill-rule="evenodd"/><path stroke="#eb5b57" stroke-width="4.0" stroke-linejoin="round" stroke-linecap="butt" d="m50.528355 37.33989l0 0c-0.10770035 6.74926 -5.4236298 12.565063 -12.0527115 13.186062l-0.043525696 -1.7175713l0 0c5.6618805 -0.59181595 10.21859 -5.5927315 10.369549 -11.380417z" fill-rule="evenodd"/></g><g filter="url(#shadowFilter-g30c2767af12_0_0.4)"><use xlink:href="#g30c2767af12_0_0.4" transform="matrix(1.0 0.0 0.0 1.0 0.0 2.0)"/></g><defs><filter id="shadowFilter-g30c2767af12_0_0.4" filterUnits="userSpaceOnUse"><feGaussianBlur in="SourceAlpha" stdDeviation="2.0" result="blur"/><feComponentTransfer in="blur" color-interpolation-filters="sRGB"><feFuncR type="linear" slope="0" intercept="0.34901962"/><feFuncG type="linear" slope="0" intercept="0.34901962"/><feFuncB type="linear" slope="0" intercept="0.34901962"/><feFuncA type="linear" slope="0.5" intercept="0"/></feComponentTransfer></filter></defs><g id="g30c2767af12_0_0.4"><path fill="#517eb9" d="m9.471653 37.477726l0 0c0.10769844 6.74926 5.423629 12.56506 12.0527115 13.186062l0.043525696 -1.7175751l0 0c-5.6618824 -0.59181595 -10.218591 -5.5927315 -10.369548 -11.380417z" fill-rule="evenodd"/><path stroke="#517eb9" stroke-width="4.0" stroke-linejoin="round" stroke-linecap="butt" d="m9.471653 37.477726l0 0c0.10769844 6.74926 5.423629 12.56506 12.0527115 13.186062l0.043525696 -1.7175751l0 0c-5.6618824 -0.59181595 -10.218591 -5.5927315 -10.369548 -11.380417z" fill-rule="evenodd"/></g></g></svg>