
<svg version="1.1" viewBox="0.0 0.0 1400.0 1400.0" fill="none" stroke="none" stroke-linecap="square" stroke-miterlimit="10" xmlns:xlink="http://www.w3.org/1999/xlink" xmlns="http://www.w3.org/2000/svg"><clipPath id="p.0"><path d="m0 0l1400.0 0l0 1400.0l-1400.0 0l0 -1400.0z" clip-rule="nonzero"/></clipPath><g clip-path="url(#p.0)"><path fill="#000000" fill-opacity="0.0" d="m0 0l1400.0 0l0 1400.0l-1400.0 0z" fill-rule="evenodd"/><path fill="#000000" fill-opacity="0.0" d="m207.07742 446.18372l945.00793 0l0 665.7953l-945.00793 0z" fill-rule="evenodd"/><path fill="#3d85c6" d="m247.01492 967.1837l0 -384.0l306.65628 0q21.34375 0 38.671875 10.40625q17.328125 10.390625 27.984375 27.734375q10.671875 17.328125 10.671875 38.65625l0 230.40625q0 21.328125 -10.671875 38.671875q-10.65625 17.328125 -27.984375 27.734375q-17.328125 10.390625 -38.671875 10.390625l-306.65628 0zm79.46875 -77.328125l223.45316 0q1.609375 0 2.40625 -0.796875q0.796875 -0.8125 0.796875 -2.40625l0 -222.9375q0 -1.59375 -0.796875 -2.390625q-0.796875 -0.796875 -2.40625 -0.796875l-223.45316 0q-1.078125 0 -2.140625 0.796875q-1.0625 0.796875 -1.0625 2.390625l0 222.9375q0 1.59375 1.0625 2.40625q1.0625 0.796875 2.140625 0.796875zm439.45187 77.328125q-20.796875 0 -38.40625 -10.390625q-17.59375 -10.40625 -27.734375 -27.734375q-10.125 -17.34375 -10.125 -38.671875l0 -32.53125l76.796875 0l0 28.796875q0 1.59375 0.796875 2.40625q0.8125 0.796875 1.875 0.796875l223.46875 0q1.0625 0 2.125 -0.796875q1.078125 -0.8125 1.078125 -2.40625l0 -69.875q0 -1.0625 -1.078125 -1.859375q-1.0625 -0.796875 -2.125 -0.796875l-226.67188 0q-20.796875 0 -38.40625 -10.390625q-17.59375 -10.40625 -27.734375 -28.0q-10.125 -17.609375 -10.125 -38.40625l0 -77.34375q0 -21.328125 10.125 -38.65625q10.140625 -17.34375 27.734375 -27.734375q17.609375 -10.40625 38.40625 -10.40625l230.9375 0q20.796875 0 38.125 10.40625q17.34375 10.390625 28.0 27.734375q10.671875 17.328125 10.671875 38.65625l0 32.546875l-77.859375 0l0 -28.8125q0 -1.59375 -1.078125 -2.390625q-1.0625 -0.796875 -2.125 -0.796875l-223.46875 0q-1.0625 0 -1.875 0.796875q-0.796875 0.796875 -0.796875 2.390625l0 69.875q0 1.0625 0.796875 1.859375q0.8125 0.796875 1.875 0.796875l227.73438 0q20.796875 0 38.125 10.40625q17.34375 10.40625 28.0 28.0q10.671875 17.59375 10.671875 38.40625l0 77.328125q0 21.328125 -10.671875 38.671875q-10.65625 17.328125 -28.0 27.734375q-17.328125 10.390625 -38.125 10.390625l-230.9375 0z" fill-rule="nonzero"/><path fill="#000000" fill-opacity="0.0" d="m247.9147 288.021l945.00793 0l0 245.63782l-945.00793 0z" fill-rule="evenodd"/><path fill="#3d85c6" d="m262.32095 386.621l0 -53.75q0 -3.734375 1.8125 -6.765625q1.828125 -3.046875 4.859375 -4.859375q3.046875 -1.828125 6.78125 -1.828125l40.21875 0q3.734375 0 6.765625 1.828125q3.03125 1.8125 4.890625 4.859375q1.875 3.03125 1.875 6.765625l0 53.75l-13.625 0l0 -22.125l-40.125 0l0 22.125l-13.453125 0l0 0zm13.453125 -35.5625l40.125 0l0 -17.546875q0 -0.28125 -0.140625 -0.40625q-0.140625 -0.140625 -0.421875 -0.140625l-39.015625 0q-0.28125 0 -0.421875 0.140625q-0.125 0.125 -0.125 0.40625l0 17.546875l0 0zm62.5224 35.5625l0 -67.203125l13.34375 0l0 67.203125l-13.34375 0zm51.41751 0l0 -67.203125l53.671875 0q3.734375 0 6.765625 1.828125q3.03125 1.8125 4.890625 4.859375q1.875 3.03125 1.875 6.765625l0 40.3125q0 3.734375 -1.875 6.765625q-1.859375 3.03125 -4.890625 4.859375q-3.03125 1.8125 -6.765625 1.8125l-53.671875 0zm13.90625 -13.53125l39.109375 0q0.28125 0 0.421875 -0.140625q0.140625 -0.140625 0.140625 -0.421875l0 -39.015625q0 -0.28125 -0.140625 -0.40625q-0.140625 -0.140625 -0.421875 -0.140625l-39.109375 0q-0.1875 0 -0.375 0.140625q-0.171875 0.125 -0.171875 0.40625l0 39.015625q0 0.28125 0.171875 0.421875q0.1875 0.140625 0.375 0.140625zm63.929504 13.53125l0 -53.75q0 -3.734375 1.8125 -6.765625q1.828125 -3.046875 4.859375 -4.859375q3.046875 -1.828125 6.78125 -1.828125l40.21875 0q3.734375 0 6.765625 1.828125q3.03125 1.8125 4.890625 4.859375q1.875 3.03125 1.875 6.765625l0 53.75l-13.625 0l0 -22.125l-40.125 0l0 22.125l-13.453125 0l0 0zm13.453125 -35.5625l40.125 0l0 -17.546875q0 -0.28125 -0.140625 -0.40625q-0.140625 -0.140625 -0.421875 -0.140625l-39.015625 0q-0.28125 0 -0.421875 0.140625q-0.125 0.125 -0.125 0.40625l0 17.546875l0 0zm117.2099 35.5625l-19.875 -23.703125l17.640625 0l16.421875 19.5l0 4.203125l-14.1875 0zm-52.828125 0l0 -67.109375l53.671875 0q3.734375 0 6.765625 1.828125q3.03125 1.8125 4.890625 4.90625q1.875 3.078125 1.875 6.71875l0 17.71875q0 3.640625 -1.875 6.6875q-1.859375 3.03125 -4.890625 4.859375q-3.03125 1.8125 -6.765625 1.8125l-40.21875 0.09375l0 22.484375l-13.453125 0zm14.0 -36.125l39.015625 0q0.28125 0 0.421875 -0.125q0.140625 -0.140625 0.140625 -0.328125l0 -16.53125q0 -0.28125 -0.140625 -0.40625q-0.140625 -0.140625 -0.421875 -0.140625l-39.015625 0q-0.265625 0 -0.40625 0.140625q-0.140625 0.125 -0.140625 0.40625l0 16.53125q0 0.1875 0.140625 0.328125q0.140625 0.125 0.40625 0.125zm63.08954 36.125l0 -67.203125l13.546875 0l0 26.796875l14.453125 0l22.40625 -26.796875l14.375 0l0 4.296875l-24.640625 29.3125l24.640625 29.296875l0 4.296875l-14.375 0l-22.40625 -26.78125l-14.453125 0l0 26.78125l-13.546875 0zm116.85907 0q-3.640625 0 -6.71875 -1.8125q-3.078125 -1.828125 -4.859375 -4.859375q-1.765625 -3.03125 -1.765625 -6.765625l0 -5.6875l13.4375 0l0 5.03125q0 0.28125 0.140625 0.421875q0.140625 0.140625 0.328125 0.140625l39.09375 0q0.1875 0 0.375 -0.140625q0.1875 -0.140625 0.1875 -0.421875l0 -12.21875q0 -0.1875 -0.1875 -0.328125q-0.1875 -0.140625 -0.375 -0.140625l-39.65625 0q-3.640625 0 -6.71875 -1.8125q-3.078125 -1.828125 -4.859375 -4.90625q-1.765625 -3.078125 -1.765625 -6.71875l0 -13.53125q0 -3.734375 1.765625 -6.765625q1.78125 -3.046875 4.859375 -4.859375q3.078125 -1.828125 6.71875 -1.828125l40.40625 0q3.640625 0 6.671875 1.828125q3.03125 1.8125 4.890625 4.859375q1.875 3.03125 1.875 6.765625l0 5.6875l-13.625 0l0 -5.046875q0 -0.28125 -0.1875 -0.40625q-0.1875 -0.140625 -0.375 -0.140625l-39.09375 0q-0.1875 0 -0.328125 0.140625q-0.140625 0.125 -0.140625 0.40625l0 12.234375q0 0.1875 0.140625 0.328125q0.140625 0.140625 0.328125 0.140625l39.84375 0q3.640625 0 6.671875 1.828125q3.03125 1.8125 4.890625 4.890625q1.875 3.078125 1.875 6.71875l0 13.53125q0 3.734375 -1.875 6.765625q-1.859375 3.03125 -4.890625 4.859375q-3.03125 1.8125 -6.671875 1.8125l-40.40625 0zm87.54181 0l0 0l0 -53.65625l-26.890625 0l0 -13.546875l67.203125 0l0 13.546875l-26.78125 0l0 53.65625l-13.53125 0zm60.570496 0q-3.734375 0 -6.78125 -1.8125q-3.03125 -1.828125 -4.84375 -4.859375q-1.8125 -3.03125 -1.8125 -6.765625l0 -40.3125q0 -3.734375 1.8125 -6.765625q1.8125 -3.046875 4.84375 -4.859375q3.046875 -1.828125 6.78125 -1.828125l40.3125 0q3.640625 0 6.671875 1.828125q3.03125 1.8125 4.890625 4.859375q1.875 3.03125 1.875 6.765625l0 40.3125q0 3.734375 -1.875 6.765625q-1.859375 3.03125 -4.890625 4.859375q-3.03125 1.8125 -6.671875 1.8125l-40.3125 0zm0.546875 -13.53125l39.015625 0q0.28125 0 0.421875 -0.140625q0.140625 -0.140625 0.140625 -0.421875l0 -39.015625q0 -0.28125 -0.140625 -0.40625q-0.140625 -0.140625 -0.421875 -0.140625l-39.015625 0q-0.265625 0 -0.40625 0.140625q-0.140625 0.125 -0.140625 0.40625l0 39.015625q0 0.28125 0.140625 0.421875q0.140625 0.140625 0.40625 0.140625zm116.29138 13.53125l-19.875 -23.703125l17.640625 0l16.421875 19.5l0 4.203125l-14.1875 0zm-52.828125 0l0 -67.109375l53.671875 0q3.734375 0 6.765625 1.828125q3.03125 1.8125 4.890625 4.90625q1.875 3.078125 1.875 6.71875l0 17.71875q0 3.640625 -1.875 6.6875q-1.859375 3.03125 -4.890625 4.859375q-3.03125 1.8125 -6.765625 1.8125l-40.21875 0.09375l0 22.484375l-13.453125 0zm14.0 -36.125l39.015625 0q0.28125 0 0.421875 -0.125q0.140625 -0.140625 0.140625 -0.328125l0 -16.53125q0 -0.28125 -0.140625 -0.40625q-0.140625 -0.140625 -0.421875 -0.140625l-39.015625 0q-0.265625 0 -0.40625 0.140625q-0.140625 0.125 -0.140625 0.40625l0 16.53125q0 0.1875 0.140625 0.328125q0.140625 0.125 0.40625 0.125zm63.18335 36.125l0 -67.203125l61.984375 0l0 13.546875l-48.359375 0l0 13.25l38.921875 0l0 13.625l-38.921875 0l0 13.25l48.359375 0l0 13.53125l-61.984375 0zm71.130005 -40.875l0 0l0 -13.34375l13.25 0l0 13.34375l-13.25 0zm0 40.875l0 0l0 -13.25l13.25 0l0 13.25l-13.25 0z" fill-rule="nonzero"/><path fill="#3d85c6" d="m262.7897 498.621l0 0l4.484375 -14.9375l-7.375 0l0 -13.25l11.390625 0l3.640625 -11.484375l-12.328125 0l0 -13.34375l16.625 0l4.5625 -14.1875l13.71875 0l-4.84375 14.1875l14.546875 0l4.578125 -14.1875l13.625 0l-4.84375 14.1875l6.625 0l0 13.34375l-10.734375 0l-3.734375 11.484375l11.84375 0l0 13.25l-16.140625 0l-4.390625 14.9375l-13.4375 0l4.578125 -14.9375l-14.75 0l-4.203125 14.9375l-13.4375 0zm22.03125 -28.1875l0 0l14.375 0l3.734375 -11.484375l-14.46875 0l-3.640625 11.484375zm64.679474 28.1875q-3.640625 0 -6.625 -1.8125q-2.984375 -1.828125 -4.8125 -4.8125q-1.8125 -2.984375 -1.8125 -6.53125l0 -4.671875l13.34375 0l0 4.015625q0 0.1875 0.140625 0.375q0.140625 0.1875 0.328125 0.1875l38.625 0q0.1875 0 0.375 -0.1875q0.1875 -0.1875 0.1875 -0.375l0 -12.875q0 -0.28125 -0.1875 -0.421875q-0.1875 -0.140625 -0.375 -0.140625l-41.15625 0l0 -13.34375l38.546875 0q0.28125 0 0.421875 -0.140625q0.140625 -0.140625 0.140625 -0.328125l0 -12.328125q0 -0.1875 -0.140625 -0.359375q-0.140625 -0.1875 -0.421875 -0.1875l-36.015625 0q-0.1875 0 -0.328125 0.1875q-0.140625 0.171875 -0.140625 0.359375l0 4.859375l-13.34375 0l0 -5.5q0 -3.640625 1.8125 -6.625q1.828125 -3.0 4.8125 -4.765625q2.984375 -1.78125 6.625 -1.78125l37.234375 0q3.640625 0 6.625 1.78125q2.984375 1.765625 4.75 4.765625q1.78125 2.984375 1.78125 6.625l0 13.53125q0 1.109375 -0.140625 2.28125q-0.140625 1.171875 -0.515625 2.09375q1.59375 1.78125 2.421875 4.078125q0.84375 2.28125 0.84375 4.703125l0 14.1875q0 3.546875 -1.78125 6.53125q-1.765625 2.984375 -4.796875 4.8125q-3.03125 1.8125 -6.578125 1.8125l-39.84375 0l0 0zm77.08911 0q-3.640625 0 -6.625 -1.8125q-2.984375 -1.828125 -4.8125 -4.8125q-1.8125 -2.984375 -1.8125 -6.53125l0 -4.671875l13.34375 0l0 4.015625q0 0.1875 0.140625 0.375q0.140625 0.1875 0.328125 0.1875l38.625 0q0.1875 0 0.375 -0.1875q0.1875 -0.1875 0.1875 -0.375l0 -12.875q0 -0.28125 -0.1875 -0.421875q-0.1875 -0.140625 -0.375 -0.140625l-41.15625 0l0 -13.34375l38.546875 0q0.28125 0 0.421875 -0.140625q0.140625 -0.140625 0.140625 -0.328125l0 -12.328125q0 -0.1875 -0.140625 -0.359375q-0.140625 -0.1875 -0.421875 -0.1875l-36.015625 0q-0.1875 0 -0.328125 0.1875q-0.140625 0.171875 -0.140625 0.359375l0 4.859375l-13.34375 0l0 -5.5q0 -3.640625 1.8125 -6.625q1.828125 -3.0 4.8125 -4.765625q2.984375 -1.78125 6.625 -1.78125l37.234375 0q3.640625 0 6.625 1.78125q2.984375 1.765625 4.75 4.765625q1.78125 2.984375 1.78125 6.625l0 13.53125q0 1.109375 -0.140625 2.28125q-0.140625 1.171875 -0.515625 2.09375q1.59375 1.78125 2.421875 4.078125q0.84375 2.28125 0.84375 4.703125l0 14.1875q0 3.546875 -1.78125 6.53125q-1.765625 2.984375 -4.796875 4.8125q-3.03125 1.8125 -6.578125 1.8125l-39.84375 0l0 0z" fill-rule="nonzero"/></g></svg>
