<svg xmlns="http://www.w3.org/2000/svg" width="110.78" height="48.42" viewBox="0 0 110.78 48.42">
  <title>sip emiia</title>
  <rect x="2.15" y="7.04" width="34.02" height="34.02" rx="12.17" ry="12.17" style="fill: transparent;stroke: transparent;stroke-miterlimit: 10;stroke-width: 1.7000000476837158px"/>
  <g>
    <path d="M46.9,28.41V19h8.58v1.4H48.32V23h5.76v1.43H48.32V27h7.16v1.4Z" style="fill: #90ffbfff"/>
    <path d="M56.51,28.41V19h1.68l3.63,4.31L65.42,19h1.69v9.36H65.7V20.93l-3.89,4.63-3.9-4.63V28.4Z" style="fill: #90ffbfff"/>
    <path d="M68.53,28.41V19h1.4v9.36Z" style="fill: #90ffbfff"/>
    <path d="M71.31,28.41V19h1.4v9.36Z" style="fill: #90ffbfff"/>
    <path d="M74.16,20.74a1.64,1.64,0,0,1,.23-.85,1.73,1.73,0,0,1,.61-.61,1.64,1.64,0,0,1,.85-.23h6a1.68,1.68,0,0,1,.86.23,1.71,1.71,0,0,1,.62.61,1.64,1.64,0,0,1,.23.85v7.67H82.1V25.13H75.56v3.28h-1.4Zm7.94,3v-3a.32.32,0,0,0-.09-.23.31.31,0,0,0-.23-.1H75.89a.33.33,0,0,0-.33.33h0v3Z" style="fill: #90ffbfff"/>
    <path d="M85,28.41V27h1.4v1.4Z" style="fill: #90ffbfff"/>
    <path d="M87.9,20.74a1.64,1.64,0,0,1,.23-.85,1.73,1.73,0,0,1,.61-.61,1.64,1.64,0,0,1,.85-.23h6a1.68,1.68,0,0,1,.86.23,1.71,1.71,0,0,1,.62.61,1.64,1.64,0,0,1,.23.85v7.67H95.84V25.13H89.3v3.28H87.9Zm7.94,3v-3a.32.32,0,0,0-.09-.23.31.31,0,0,0-.23-.1H89.63a.33.33,0,0,0-.33.33h0v3Z" style="fill: #90ffbfff"/>
    <path d="M98.7,28.41V19h1.4v9.36Z" style="fill: #90ffbfff"/>
  </g>
  <g>
    <g>
      <path d="M14.48,7.66V8.91a.73.73,0,0,1-.68.73,9.64,9.64,0,0,0-8.94,8.94.73.73,0,0,1-.73.68H2.89a.74.74,0,0,1-.73-.79A12.35,12.35,0,0,1,13.69,6.93.74.74,0,0,1,14.48,7.66Z" style="fill: #90ffbfff;stroke: #90ffbfff;stroke-miterlimit: 10;stroke-width: 1.7000000476837158px"/>
      <path d="M23.84,7.66V8.91a.73.73,0,0,0,.68.73,9.64,9.64,0,0,1,8.94,8.94.73.73,0,0,0,.73.68h1.25a.74.74,0,0,0,.73-.79A12.35,12.35,0,0,0,24.62,6.93.74.74,0,0,0,23.84,7.66Z" style="fill: #90ffbfff;stroke: #90ffbfff;stroke-miterlimit: 10;stroke-width: 1.7000000476837158px"/>
    </g>
    <path d="M14.48,40.44V39.19a.73.73,0,0,0-.68-.73,9.64,9.64,0,0,1-8.94-8.94.73.73,0,0,0-.73-.68H2.89a.74.74,0,0,0-.73.79A12.35,12.35,0,0,0,13.69,41.17.74.74,0,0,0,14.48,40.44Z" style="fill: #90ffbfff;stroke: #90ffbfff;stroke-miterlimit: 10;stroke-width: 1.7000000476837158px"/>
    <path d="M23.84,40.44V39.19a.73.73,0,0,1,.68-.73,9.64,9.64,0,0,0,8.94-8.94.73.73,0,0,1,.73-.68h1.25a.74.74,0,0,1,.73.79A12.35,12.35,0,0,1,24.62,41.17.74.74,0,0,1,23.84,40.44Z" style="fill: #90ffbfff;stroke: #90ffbfff;stroke-miterlimit: 10;stroke-width: 1.7000000476837158px"/>
  </g>
  <circle cx="19.16" cy="24.05" r="5.52" style="fill: #90ffbfff;stroke: #90ffbfff;stroke-miterlimit: 10;stroke-width: 4px"/>
</svg>
