<?xml version="1.0" encoding="UTF-8" standalone="no"?>
<svg
   xmlns:dc="http://purl.org/dc/elements/1.1/"
   xmlns:cc="http://creativecommons.org/ns#"
   xmlns:rdf="http://www.w3.org/1999/02/22-rdf-syntax-ns#"
   xmlns:svg="http://www.w3.org/2000/svg"
   xmlns="http://www.w3.org/2000/svg"
   xmlns:sodipodi="http://sodipodi.sourceforge.net/DTD/sodipodi-0.dtd"
   xmlns:inkscape="http://www.inkscape.org/namespaces/inkscape"
   inkscape:version="1.0 (4035a4fb49, 2020-05-01)"
   sodipodi:docname="vv_g_m_STORE_33.svg"
   xml:space="preserve"
   style="enable-background:new 0 0 1417.32 1417.32;"
   viewBox="0 0 1417.32 1417.32"
   y="0px"
   x="0px"
   id="Layer_1"
   version="1.1"><metadata
   id="metadata15"><rdf:RDF><cc:Work
       rdf:about=""><dc:format>image/svg+xml</dc:format><dc:type
         rdf:resource="http://purl.org/dc/dcmitype/StillImage" /><dc:title></dc:title></cc:Work></rdf:RDF></metadata><defs
   id="defs13">
	
	
</defs><sodipodi:namedview
   inkscape:current-layer="Layer_1"
   inkscape:window-maximized="1"
   inkscape:window-y="-11"
   inkscape:window-x="-11"
   inkscape:cy="888.59253"
   inkscape:cx="757.18762"
   inkscape:zoom="0.43803783"
   showgrid="false"
   id="namedview11"
   inkscape:window-height="1046"
   inkscape:window-width="1920"
   inkscape:pageshadow="2"
   inkscape:pageopacity="0"
   guidetolerance="10"
   gridtolerance="10"
   objecttolerance="10"
   borderopacity="1"
   bordercolor="#666666"
   pagecolor="#ffffff" />
<style
   id="style2"
   type="text/css">
	.st0{fill:#2DBE64;}
</style>
<path
   style="fill:#90ffbf;fill-opacity:1"
   class="st0"
   d="M 1051.6,947.11 H 708.86 V 463.18 h 312.12 c 100.74,0 155.43,62.78 155.43,137.08 0,33.34 -16.8,67.42 -42.58,93.2 37.99,20.06 70.56,65.26 70.56,112.39 0,82.9 -64.72,141.26 -152.79,141.26 z M 828.48,849.76 h 206.84 c 28.98,0 48.06,-21.43 48.06,-47.78 v -0.77 c 0,-26.34 -19.08,-47.78 -48.06,-47.78 H 828.48 Z m 0,-193.68 h 176.95 c 31.32,0 49.97,-21.43 49.97,-47.78 0,-26.34 -17.49,-47.78 -49.97,-47.78 H 828.48 Z"
   id="path4" /><path
   style="fill:#90ffbf;fill-opacity:1"
   class="st0"
   d="M 498.53,947.11 H 245.27 V 463.18 h 222.64 c 100.74,0 155.43,62.78 155.43,137.08 0,33.34 -16.8,67.42 -42.58,93.2 37.99,20.06 70.56,65.26 70.56,112.39 0,82.9 -64.72,141.26 -152.79,141.26 z M 364.88,849.76 h 117.37 c 28.98,0 48.06,-21.43 48.06,-47.78 v -0.77 c 0,-26.34 -19.08,-47.78 -48.06,-47.78 H 364.88 Z m 0,-193.68 h 87.48 c 31.32,0 49.97,-21.43 49.97,-47.78 0,-26.34 -17.49,-47.78 -49.97,-47.78 h -87.48 z"
   id="path6" />
<text
   id="text844"
   y="388.09433"
   x="707.70142"
   style="font-size:74.6667px;line-height:1.25;font-family:Orbitron;-inkscape-font-specification:Orbitron;fill:#90ffbf;fill-opacity:1"
   xml:space="preserve"><tspan
     style="font-style:normal;font-variant:normal;font-weight:bold;font-stretch:normal;font-size:96px;font-family:Arial;-inkscape-font-specification:'Arial Bold';fill:#90ffbf;fill-opacity:1"
     y="388.09433"
     x="707.70142"
     id="tspan842"
     sodipodi:role="line">STORE: #33</tspan></text></svg>
