<?xml version="1.0" encoding="UTF-8" standalone="no"?>
<svg
   xmlns:dc="http://purl.org/dc/elements/1.1/"
   xmlns:cc="http://creativecommons.org/ns#"
   xmlns:rdf="http://www.w3.org/1999/02/22-rdf-syntax-ns#"
   xmlns:svg="http://www.w3.org/2000/svg"
   xmlns="http://www.w3.org/2000/svg"
   xmlns:sodipodi="http://sodipodi.sourceforge.net/DTD/sodipodi-0.dtd"
   xmlns:inkscape="http://www.inkscape.org/namespaces/inkscape"
   inkscape:version="1.0 (4035a4fb49, 2020-05-01)"
   sodipodi:docname="vv_g_m_STORE_33.svg"
   xml:space="preserve"
   style="enable-background:new 0 0 1417.32 1417.32;"
   viewBox="0 0 1417.32 1417.32"
   y="0px"
   x="0px"
   id="Layer_1"
   version="1.1"><metadata
   id="metadata15"><rdf:RDF><cc:Work
       rdf:about=""><dc:format>image/svg+xml</dc:format><dc:type
         rdf:resource="http://purl.org/dc/dcmitype/StillImage" /><dc:title></dc:title></cc:Work></rdf:RDF></metadata><defs
   id="defs13"><rect
   id="rect856"
   height="1054.7034"
   width="2002.1102"
   y="171.21809"
   x="-362.98235" /><rect
   id="rect850"
   height="107.29667"
   width="57.072696"
   y="383.52852"
   x="545.61498" />
	
	
</defs><sodipodi:namedview
   inkscape:current-layer="Layer_1"
   inkscape:window-maximized="1"
   inkscape:window-y="-11"
   inkscape:window-x="-11"
   inkscape:cy="888.59253"
   inkscape:cx="757.18762"
   inkscape:zoom="0.43803783"
   showgrid="false"
   id="namedview11"
   inkscape:window-height="1046"
   inkscape:window-width="1920"
   inkscape:pageshadow="2"
   inkscape:pageopacity="0"
   guidetolerance="10"
   gridtolerance="10"
   objecttolerance="10"
   borderopacity="1"
   bordercolor="#666666"
   pagecolor="#ffffff" />
<style
   id="style2"
   type="text/css">
	.st0{fill:#2DBE64;}
</style>
<path
   style="fill:#90ffbf;fill-opacity:1"
   class="st0"
   d="M 1044.7513,1040.7092 H 702.01128 V 556.77922 h 312.12002 c 100.74,0 155.43,62.78 155.43,137.08 0,33.34 -16.8,67.42 -42.58,93.2 37.99,20.06 70.56,65.26 70.56,112.39 0,82.9 -64.72,141.25998 -152.79,141.25998 z M 821.63128,943.35922 h 206.84002 c 28.98,0 48.06,-21.43 48.06,-47.78 v -0.77 c 0,-26.34 -19.08,-47.78 -48.06,-47.78 H 821.63128 Z m 0,-193.68 h 176.95 c 31.32002,0 49.97002,-21.43 49.97002,-47.78 0,-26.34 -17.49,-47.78 -49.97002,-47.78 h -176.95 z"
   id="path4" /><path
   style="fill:#90ffbf;fill-opacity:1"
   class="st0"
   d="m 491.68128,1040.7092 h -253.26 V 556.77922 h 222.64 c 100.74,0 155.43,62.78 155.43,137.08 0,33.34 -16.8,67.42 -42.58,93.2 37.99,20.06 70.56,65.26 70.56,112.39 0,82.9 -64.72,141.25998 -152.79,141.25998 z m -133.65,-97.34998 h 117.37 c 28.98,0 48.06,-21.43 48.06,-47.78 v -0.77 c 0,-26.34 -19.08,-47.78 -48.06,-47.78 h -117.37 z m 0,-193.68 h 87.48 c 31.32,0 49.97,-21.43 49.97,-47.78 0,-26.34 -17.49,-47.78 -49.97,-47.78 h -87.48 z"
   id="path6" />
<text
   transform="scale(1.0029563,0.99705242)"
   id="text844"
   y="308.27954"
   x="248.01367"
   style="font-size:125.375px;line-height:1.25;font-family:Orbitron;-inkscape-font-specification:Orbitron;fill:#90ffbf;fill-opacity:1;stroke-width:1.67913"
   xml:space="preserve"><tspan
     style="font-style:normal;font-variant:normal;font-weight:bold;font-stretch:normal;font-size:120px;font-family:Arial;-inkscape-font-specification:'Arial Bold';fill:#90ffbf;fill-opacity:1;stroke-width:1.67913"
     y="308.27954"
     x="248.01367"
     id="tspan842"
     sodipodi:role="line">STORE: </tspan><tspan
     id="tspan846"
     style="font-style:normal;font-variant:normal;font-weight:bold;font-stretch:normal;font-size:120px;font-family:Arial;-inkscape-font-specification:'Arial Bold';fill:#90ffbf;fill-opacity:1;stroke-width:1.67913"
     y="464.99829"
     x="248.01367"
     sodipodi:role="line">#33</tspan></text><text
   style="line-height:1.25;font-family:Orbitron;font-size:74.66666667px;-inkscape-font-specification:Orbitron;white-space:pre;shape-inside:url(#rect850);"
   id="text848"
   xml:space="preserve" /><text
   style="line-height:1.25;font-family:Orbitron;font-size:74.66666667px;-inkscape-font-specification:Orbitron;white-space:pre;shape-inside:url(#rect856);"
   id="text854"
   xml:space="preserve" /></svg>
