<svg xmlns="http://www.w3.org/2000/svg" width="883.33" height="165" viewBox="0 0 883.33 165">
  <title>московский транспорт, метро...</title>
  <g>
    <path d="M239,23.39v5.31h45.62c3,0,7.61,0,10.65,3s3,7.61,3,10.65V88c0,3,0,7.61-3,10.64s-7.62,3-10.65,3h-22c-3.8,0-8.75,0-10.65-4.18s.76-8,3.06-11L284.65,47H239L220.74,71.33c-3.06,4.08-5.7,7.61-5.7,12.16s2.45,7.85,5.7,12.16l4.56,6.08c4.56,6.08,9.12,12.16,15.17,15.17s13.31,3,23.16,3h19.8c11.42,0,28.48,0,39.94-11.39s11.39-28.13,11.39-34.16V56.07c0-6.09,0-22.81-11.39-34.16s-28.48-11.38-39.94-11.39l-31.49,0c-3,0-6.84,0-9.89,3s-3,6.84-3,9.89" style="fill: #da4216"/>
    <polygon points="184.57 46.9 229.73 46.9 175.31 119.84 129 119.84 184.57 46.9" style="fill: #da4216"/>
    <path d="M6.27,59.86c0-3,0-6.84,3-9.89s6.85-3,9.89-3H95.62c9.88,0,17.14,0,23.16,3s10.63,9.14,15.17,15.17l4.57,6.08c3.25,4.32,5.72,7.61,5.72,12.16s-2.66,8.09-5.72,12.16l-18.29,24.31H74.6l29.64-39.48c2.28-3,5-6.83,3-11s-6.83-4.17-10.63-4.17H60.88v91.24H24.41V65.18H6.12V59.85" style="fill: #da4216"/>
  </g>
  <g>
    <path d="M672.81,11.32H425.46a7.27,7.27,0,0,0-7.37,5.36C410.14,41.13,394.25,90,386.3,114.5a3.81,3.81,0,0,0,3.84,5.28H637.5a7.26,7.26,0,0,0,7.37-5.36c7.95-24.45,23.84-73.36,31.78-97.82a3.82,3.82,0,0,0-3.84-5.29" style="fill: #e4000d"/>
    <path d="M586.83,81.82h20.34V49.28H596.75Zm40.12,0-3.52,10.85H566.08l3.52-10.85h5.71l14.1-43.38H618V81.82Z" style="fill: #fff"/>
    <polygon points="563.89 81.82 560.37 92.67 509.85 92.67 509.85 38.44 520.69 38.44 520.69 81.82 544.1 81.82 544.1 38.44 554.95 38.44 554.95 81.82 563.89 81.82" style="fill: #fff"/>
    <polygon points="504.43 92.67 492.68 92.67 482.53 59.33 482.37 59.33 471.28 92.67 470.82 92.67 461.21 92.67 460.76 92.67 449.67 59.33 449.51 59.33 439.36 92.67 427.61 92.67 445.23 38.44 453.41 38.44 465.94 77.02 466.1 77.02 478.63 38.44 486.81 38.44 504.43 92.67" style="fill: #fff"/>
  </g>
  <g>
    <path d="M692.19,13.85a3.56,3.56,0,0,1,3.4-2.53H870.94a3.56,3.56,0,0,1,3.4,4.63l-32.61,101.3a3.56,3.56,0,0,1-3.4,2.53H663a3.56,3.56,0,0,1-3.4-4.63Z" style="fill: #e95b0c"/>
    <g>
      <path d="M825.31,62.95h0a22.39,22.39,0,0,0-11.93-6.51l16.56-16.56v-10H784.17V41.83h29.28L796.24,59V67.5l1.81-.29c.8-.07,1.59-.14,2.53-.29a15.88,15.88,0,0,1,2.6-.07,18.69,18.69,0,0,1,10.92,3,9.33,9.33,0,0,1,4.19,8.24,9.83,9.83,0,0,1-3.83,8.24h0a14.31,14.31,0,0,1-9.4,3.11,21.49,21.49,0,0,1-8.6-1.59,25.28,25.28,0,0,1-7.16-4.77l-1.08-1-8.6,8.6,1.08,1.08a33.15,33.15,0,0,0,10.7,7h0a36.72,36.72,0,0,0,13.88,2.53,27.2,27.2,0,0,0,18.58-6.72,21.57,21.57,0,0,0,7.59-16.56C831.31,72,829.36,67,825.31,62.95Z" style="fill: #fff"/>
      <path d="M761.39,39.81h0c-6.44-6.72-15.26-10-26.25-10H705.57l-3,11.64h9.4V100h23.21c11,0,19.81-3.25,26.25-9.83h0c6.36-6.65,9.47-15,9.47-25.16s-3.11-18.58-9.47-25.24ZM757.56,65c0,8.1-2.24,13.81-6.51,17.64s-9.76,5.86-16.49,5.86h-9.62V41.62h9.62c6.8,0,12.29,2,16.49,5.93h0C755.32,51.38,757.56,57.09,757.56,65Z" style="fill: #fff"/>
    </g>
  </g>
</svg>
