<svg xmlns="http://www.w3.org/2000/svg" width="498" height="124.33" viewBox="0 0 498 124.33">
  <title>московский транспорт, метро...</title>
  <g>
    <g>
      <path d="M52.54,20.56a4.41,4.41,0,0,0,1,.14,1.15,1.15,0,0,1,1.31,1.05c.21,1,0,1.6-.73,1.92l-.44.16a2.91,2.91,0,0,0,.36,1c.93,1,.82,2.19.73,3.4s-.07,2.3-.08,3.44a1.93,1.93,0,0,0,.17.5c.36-.24.66-.43,1-.64a4.09,4.09,0,0,1,3.7-.82,16.08,16.08,0,0,0,4.19.08c.41,0,.42-.28.23-.58s-.43-.65-.75-1.13a10.3,10.3,0,0,1,1.49.21c.7.21,1.06,0,1.07-1A26.48,26.48,0,0,1,67.77,30a1,1,0,0,0,1.23.35,2.9,2.9,0,0,1,3.75,2l-.57.1c.59,2.12,2,3.76,3.09,5.6a4.32,4.32,0,0,0,1.44,1.27,1.08,1.08,0,0,1,.63,1,11.6,11.6,0,0,1,.07,1.42,1.43,1.43,0,0,1-.52.89c-.15.11-.56-.1-.83-.23a4.82,4.82,0,0,1-.69-.5l.25,1a4.33,4.33,0,0,1-1.18-.22,10.47,10.47,0,0,1-1.43-1,5.76,5.76,0,0,0-3.44-.87c-.61,0-.66.41-.55.82a16.17,16.17,0,0,0,.72,2.2c.67,1.59,1.36,3.18,2.11,4.73A11,11,0,0,0,73,50.46c.89,1.17,1.89,2.28,2.69,3.51a6.93,6.93,0,0,1,.77,2.24c.21.91.41,1.11,1.18.63a31.82,31.82,0,0,0,3.1-2.22c.78-.63,1.45-.63,1.87.3a17.9,17.9,0,0,0,4.22,5.8,2.38,2.38,0,0,1,.68,1.68c.07,1,.36,2,.46,2.94A22.08,22.08,0,0,1,88.11,68c0,.48-.35.53-.68.29a23,23,0,0,1-1.88-1.49c-.59-.54-.22-1.12.18-1.51a1.81,1.81,0,0,0,.31-2.5,4.48,4.48,0,0,0-.54-.57c-.19-.21-.56-.47-.53-.65.21-1.11-.72-1.55-1.25-2.2A8.2,8.2,0,0,0,82.14,58c-.19-.14-.66-.21-.79-.09-1.53,1.39-3,2.82-4.53,4.24l.16.33a12.86,12.86,0,0,0,1.88-.17,1.49,1.49,0,0,1,1.88.84,17.71,17.71,0,0,0,3.76,5.65,2.18,2.18,0,0,1,.43,1.39,9.18,9.18,0,0,0,.87,3.69,12.19,12.19,0,0,1,.62,2.61c.09.46-.13.71-.6.49a24.42,24.42,0,0,1-2.37-1.24.81.81,0,0,1-.23-1.24,4.37,4.37,0,0,0,.4-.89A2.28,2.28,0,0,0,83,70.92c-.55-.51-1-1-.65-1.88.1-.24-.23-.78-.49-1.06-.71-.75-1.52-1.39-2.21-2.15a1.12,1.12,0,0,0-1.45-.31c-1.52.64-3.08,1.21-4.59,1.87a17.43,17.43,0,0,1-7.6,2l2.34,3,.09-.17.51.23-.7.42-.37-.47L55.76,56.15Q46.67,44.06,37.58,32a7.78,7.78,0,0,0-1.31-1.34.77.77,0,0,0-.76.08c-.12.13-.08.54,0,.76a4.3,4.3,0,0,0,.67.78c-.45.42-.44,1.19,0,2.25l.27-.83.15,0,.09,1.51h.1l.13-.43h.11l.16,1,.43-.7.19,1.16.4-.81.33,1.71h.14L39,35.64,69,74.83l.21-.1L69,72.37c.21.32.44.35.82.21,1.1-.42,1.38-.24,1.77.85a17.13,17.13,0,0,0,.76,1.8,2,2,0,0,0,1.42,1,2.71,2.71,0,0,1,1.52,1.49,14.15,14.15,0,0,0,2,3.59c.74,1,.69,1.07-.52,1.4.15.69,0,1.18-.85,1.27-.11,0-.26.36-.25.54a4,4,0,0,1-1.44,3.32c-1.2,1.17-2.32,2.41-3.5,3.6a4,4,0,0,1-.8.55c-.4.24-.41.52-.12.86a1.29,1.29,0,0,0,1.76.31c1.12-.85,2.26-.46,3.35-.14a3.46,3.46,0,0,1,1.43,1.24c.13.16-.12.61-.21,1-.34-.36-.55-.71-.87-.87a3.35,3.35,0,0,0-1.1-.14c.39,1.55.36,1.79-.25,2.33a1.32,1.32,0,0,0-1.75-.95c-1,.25-.14,1-.33,1.45,0,0-.12,0-.14,0-1.06-1.24-2.35-1.2-3.77-.74-1,.33-2.09.68-3.14-.14-.55-.43-3.41.43-3.82,1,0,.06-.09.12-.14.18-.67-.83-.17-2,1-2.47.37-.14.78-.2,1.15-.34.14-.05.35-.23.34-.32a.71.71,0,0,0-.3-.46c-.66-.41-.66-.4-.54-1.1a2.75,2.75,0,0,0-2.87.36c-.82.65-.81.65-1.32-.32,0,0-.06-.07,0,0l-1.79-.19a11,11,0,0,0-1.19-.14,4.52,4.52,0,0,1-3-.81,1.07,1.07,0,0,0-1.66.14c-.34.53-.22,1.12.46,1.62s1.31,1,2.22.41c.18-.13.59,0,.87.09a6.41,6.41,0,0,1,.58.32c.68.27.77.4.65,1.11-.31-.14-.64-.41-1-.4a3.31,3.31,0,0,0-1.3.48c1.75.71,2,1.07,1.33,2.19,0-.8-.42-.61-.94-.57A10.73,10.73,0,0,1,51,96.8a3.18,3.18,0,0,0-2.26.06l.43,1.44a13.46,13.46,0,0,1-1.41-.22,3,3,0,0,1-1-.45c-.34-.24-.59-.46-1.07-.26-.2.08-.64-.16-.84-.38a2.12,2.12,0,0,0-1-.48,2.63,2.63,0,0,0-2.63.42.87.87,0,0,1-.8,0c-.77-.53-1.24,0-1.74.42-.07.06-.15.11-.35.07A7,7,0,0,1,39,96.17a7.86,7.86,0,0,1,1.44-1.3,1.88,1.88,0,0,1,1-.19c.63,0,1.26.1,1.88,0,.79-.09,1-.65.49-1.27a5.23,5.23,0,0,0-.85-.85.91.91,0,0,1-.24-1.38A8.63,8.63,0,0,1,43.84,90c.63-.62.63-.94.11-1.65a1.86,1.86,0,0,1-.25-1c0-.46-.14-.74-.61-.75-.64,0-1.28,0-1.83,0,.17,1,.39,2,.46,3a2.52,2.52,0,0,1-1.32,2.44,5.37,5.37,0,0,1-4.84.86A3.58,3.58,0,0,1,33,89.18c0-.7.08-1.4.13-2.09,0-.34.05-.62-.44-.69-1.48-.2-3-.45-4.53-.7a2.67,2.67,0,0,0,.19,2.4c.81,1.32,1.57,2.67,2.33,4A6.06,6.06,0,0,1,31,93.17a7.5,7.5,0,0,1-3.6-.39.91.91,0,0,1-.39-.66,3.74,3.74,0,0,1,.09-1.34,3.3,3.3,0,0,0-1-3.61c-1-1-1-1-.13-2.12.43-.52.42-.84-.09-1.3-2.23-2-2.38-4.45-1.25-7,.49-1.12,1.17-2.16,1.74-3.24a4.13,4.13,0,0,0-.19-4.35,4.73,4.73,0,0,0-.48-.56c-1.21,1.16-2.79,1.79-3.54,3.37a12.5,12.5,0,0,0-1.29,4.68,5.62,5.62,0,0,1-.38-.63,12.23,12.23,0,0,1-1.08-5.86,3.45,3.45,0,0,1,1-2,10.11,10.11,0,0,0,1.27-2c.26-.5,0-.85-.52-1.14a15.74,15.74,0,0,1-2.54-1.69c-1-.88-.91-2.05-.47-3.19a2.37,2.37,0,0,1,2.47-1.69c.84,0,.84,0,.7-1.25.91.41,1.22,1.88.78,3.43l-1.41-1.19.17-.29c-1.17-.24-1.86.26-2,1.36A2.36,2.36,0,0,0,20.23,63c.56.3,1.14.56,1.81.89a12.65,12.65,0,0,1,2-5.52A14.64,14.64,0,0,1,27.14,55c1.86-1.35,4-1.11,6-.21,1.13.51,2.15,1.27,3.25,1.88a1.4,1.4,0,0,0,.88.13c1.39-.27,2.78-.58,4.16-.89.22-.05.6-.26.59-.34a1,1,0,0,0-.39-.7A.79.79,0,0,1,41,54c0-.15-.3-.35-.51-.45A6.48,6.48,0,0,1,39.28,53C35.84,50.09,32,50,28,51.37l-.89.31-.22-.17c.21-.44.38-.9.62-1.33.42-.74,1.3-1.22,1.19-2.25,0-.15.26-.34.42-.5.48-.48,1-.93,1.45-1.42a1.25,1.25,0,0,0,.21-1.52c-.82-1.7-.36-2.68,1.45-3.22a22.29,22.29,0,0,0,2.34-.8,2,2,0,0,0,1-.77,1.57,1.57,0,0,0,0-1.18c-.07-.19-.57-.31-.87-.32-.65,0-1.29.07-2,.13a1.74,1.74,0,0,1,.17-.58c.72-.85,1.47-1.67,2.2-2.52.18-.21.43-.49.41-.71-.07-.82-.24-1.63-.38-2.44a.46.46,0,0,0-.1-.2c-.76-.94-1.49-1.89-2.29-2.79a1.54,1.54,0,0,1-.46-1.46,2.29,2.29,0,0,0-.42-1.5c-.85-1.24-1.79-2.42-2.69-3.62a2.42,2.42,0,0,1-.38-.64,1.57,1.57,0,0,1,0-.56l.53.24c-.7,0-.29.36-.15.54.9,1.21,1.81,2.4,2.73,3.59.19.25.42.47.61.68.75-.4.16-.75.09-1.1.25.16.49.45.74.45,1.49,0,1.85,1.15,2.34,2.2a1.22,1.22,0,0,0,.58.61,1.8,1.8,0,0,1,1.29,1.82c0,.91.68,1.42,1.25,2,.13.13.63,0,.87-.13.69-.44,1.32-1,2-1.45a1.77,1.77,0,0,1,2.66.25c-.37-.05-.73-.13-1.1-.16a1.79,1.79,0,0,0-1.8.93c1.3.09,2.63-.31,3.61.73.11-.07.26-.23.33-.19.48.21.95.47,1.42.71a10.77,10.77,0,0,0,1.42.73,3.79,3.79,0,0,0,1.14,0l-5-2.8c.29,0,.59-.06.88-.05a3.58,3.58,0,0,1,1.1.07c1.52.51,2.09.14,2.24-1.5a9.19,9.19,0,0,1,.22-1.94,17.58,17.58,0,0,1,1-2.2l.45-.95c-2.13.32-4.06.53-5.82-.52v-.22l1.55-.15c-.76-.67-1.69-1-2.16-2.18.4.14.62.19.84.29a4.16,4.16,0,0,0,4.15-.34l1.4-.88a1.84,1.84,0,0,1,2.45.22,2.39,2.39,0,0,0-2.73.28,12,12,0,0,1-1.11.64,4.65,4.65,0,0,1-2.94.72,15.46,15.46,0,0,1-1.56-.39A2.92,2.92,0,0,0,46.8,23l0,.24L44.93,24a2.16,2.16,0,0,0,.42.23,2.71,2.71,0,0,0,3-1,3.08,3.08,0,0,1,2.26-1.3c1-.11,1.78,0,2.15,1.12l.49-.37,1,.31c.1-.41.36-.85.27-1.22a.94.94,0,0,0-1.15-.78l.1.74ZM47.64,60h0l.26-1.67-.23,0a18.19,18.19,0,0,0-.45,6.85,20.41,20.41,0,0,1,0-6.94,18.48,18.48,0,0,0-.86,7.06,21.92,21.92,0,0,1,.36-7.12c-1.14,2.3-.84,4.76-.89,7.19a18.7,18.7,0,0,1,.31-7.2,2.78,2.78,0,0,0-.41.83,19.32,19.32,0,0,0-.48,5.82c0,1.38,0,1.38,1.42,1.23l.3,0c1.22-.11,2.44-.21,3.66-.33.32,0,.83-.21.41-.55s-.34-.73-.34-1.13c0-1.74,0-3.48,0-5.23l-.12,0-.32,5.45V58.46c-.79,2.06-.27,4.23-.63,6.33V58.5h-.29v6.3h-.21V58.36c-.51,2.1-.3,4.26-.47,6.39V58.37c-.9,2.09-.28,4.27-.51,6.41V58.29l-.3.88ZM60,44.45l-.18.08L61,47.17l-.84-.79-.14.1L61,48.33l-.11.06L60,47.33l-.14.08.79,1.8-.08,0-.72-.86-.12.07.76,1.85-.09,0-1-1.21-.1.06,1,2.09-.2.18-1-1.14,0,0,1.05,1.79-.07.07-1-.79-.08.07.56,1.13-.1.06-1-.86-.14.1,1.09,1.71-.63-.33-.6-.35c.4,1.12.4,1.15,1.38,1.28,1.24.17,2.48.3,3.73.42,2.71.27,5.39,1,8.17.78l-.7-1.24,1.22.32-1.28-2L72,52.9l-1.15-1.7.82.06L70.75,50l1,.31c-.2-.59-.35-1.06-.53-1.52q-1.59-4.08-3.19-8.16a1,1,0,0,0-.31-.42,2.31,2.31,0,0,1-.83-2.91,5.15,5.15,0,0,0,.15-.57l.66,1.64.39-.68.36,1.38.15,0,.13-.44c.37.36.69.9,1.14,1.06a35.47,35.47,0,0,0,3.6,1,1.43,1.43,0,0,0,.84,0c.68-.29,1-.17,1.29.51a2.08,2.08,0,0,0,.51.79,2.65,2.65,0,0,0,.83.3l.22-1-.31-.17-.28.56-.23-.1c.08-.27.08-.63.26-.8.56-.53.28-.9-.23-1.08a3.74,3.74,0,0,1-2.46-2.62,3.66,3.66,0,0,0-.37-.65c-.31-.55-.65-.9-1.15-.17l-1.16-1,1-.91a2.26,2.26,0,0,0-.39-.24,3.45,3.45,0,0,1-2.62-1.82c0-.11-.24-.18-.38-.21a12.47,12.47,0,0,0-2.26-.37,3.59,3.59,0,0,0-1.83.46c-.35.21-.43.85-.62,1.26L63.83,33,64,34.63l-.52-.84-.12,0,.15,1-.09,0L63,34l-.15,0,.35,1.72-.73-1.18.33,1.65-.13,0-.56-.85-.1,0,.34,1.7-.59-.67-.09.06.35,1.29-.12,0-.67-.81-.14.08.58,1.42-.11,0L61,37.87l.46,1.57-.08,0-.57-.84-.09,0,.62,1.63-.11.05-.72-1-.1.05.77,2.06-.1,0-.75-.81-.15.1,1,2-.11.05L60.2,41.7l-.12.06.93,2.1-.1.05L60,42.81l-.14.07,1.28,2.79-.13.06ZM25.87,86.33a.46.46,0,0,0,.07.1,12.52,12.52,0,0,1,1,1.32,3.83,3.83,0,0,1,.58,1.48c.1,1.11.35,1.37,1.7,1.17L28.48,89c-.35-.65-1-1.34-1-2a12,12,0,0,1,1-3.49,29.2,29.2,0,0,1,1.6-2.8c.12-.22.27-.63.17-.74-.36-.39-.11-.69,0-1,.18-.52.34-1,.46-1.4l.82-.38.14.56.41-.82.31.37.44-.72.18.72.5-.92.27.71.57-1,.17.37.49-.63.13.53.8-1.27.09.89.64-1,.1.86.64-1.32.32.36.68-1,.16.3a6.77,6.77,0,0,1,.86-.71c.26-.15.62-.13.86-.29.92-.61,1.83-1.24,2.7-1.92.57-.45,1.07-1,1.64-1.54l.9-.18.42.75.21-.94.27,1.15.13,0,.35-1.07.42.9.26-1,.4.67.52-1.1.2.84.45-.89.32.58.38-1.66c-1.77.23-3.44.41-5.09.67a2,2,0,0,0-1.12.61,14.67,14.67,0,0,1-7.54,4.56,6.9,6.9,0,0,1-.83.11l-.13-.26,1.22-1,.16.56.78-1.48.07,1.1.9-1.56.12,0V72l.12,0L39,70.58l.11,0,.06,1,.16,0,.43-1.44.09,0,.1,1,.64-2h.09v1.1h.11l.4-1.87.13,0-.05,1.18.21,0L42,67.55l.14,1.52h.23l.22-1.88h.09l.28,1.21h.3c.15-2.75.31-5.49.43-8.24,0-.13-.36-.41-.53-.39-1,.11-2,.29-3,.45l0-.12,3.51-.87a8.07,8.07,0,0,0-7.24,3,5.41,5.41,0,0,1,2-2.42,7.42,7.42,0,0,1,4.39-1.05,5.87,5.87,0,0,0,1-.17l-.06-.29a9.73,9.73,0,0,0-5.35.84c-1.74,1-2.59,2.6-3.39,4.29.4-2.37,1.56-4.25,3.88-5A21.76,21.76,0,0,1,43,57.83c.35,0,.7-.06,1-.09q-.19-.36-.39-.36a20.85,20.85,0,0,0-3.81.08c-4.15.8-6,4.11-6.44,8.29-.22,2.35-.24,4.71-.32,7.07a3.05,3.05,0,0,1-1.3,2.42,17.14,17.14,0,0,1-1.7,1.11,1.91,1.91,0,0,0-.93,1.6,11.93,11.93,0,0,1-.7,3.13C27.75,82.83,26.8,84.51,25.87,86.33Zm43.42-9.12a9.89,9.89,0,0,0-.78-2.3c-1-1.59-2.23-3.08-3.35-4.62a.62.62,0,0,0-1-.16,28.71,28.71,0,0,1-12.88,3.65A2.73,2.73,0,0,0,48.77,75,13.34,13.34,0,0,1,46,77.79c-1.8,1.53-2.21,1.65-.29,3.95,0,0,0,0,.05.05a2.13,2.13,0,0,0,.69.16c.93-.1,1.85-.31,2.79-.36.71,0,.94-.25.6-.91a4.38,4.38,0,0,0-2.2-2.27c-.24-.1-.47-.23-.71-.34l0-.24a13,13,0,0,1,1.76.28,20.35,20.35,0,0,0,6.07.88.91.91,0,0,0,.71-.35c.09-.2-.09-.53-.19-.79s-.19-.21-.29-.33c.71-1.19.34-2.22-.54-3.26a3.56,3.56,0,0,1,.48.08A13.82,13.82,0,0,1,59.85,77a.87.87,0,0,0,1.23.14,5.22,5.22,0,0,1,4-.64,2.13,2.13,0,0,1,1.6,3.08,11.89,11.89,0,0,0-.44,2.25c-.05.34.08.78-.08,1-.61.91-.33,1.89-.36,2.85a2,2,0,0,0,1.55,1.6A5.83,5.83,0,0,0,72,84.61a1.1,1.1,0,0,0-.05-.74c-.13-.36-.36-.69-.5-1a15.33,15.33,0,0,0-.8-2c-.62-1.05-1.37-2-2.06-3.06a1,1,0,0,1-.17-.25c0-.13-.1-.35,0-.4a.7.7,0,0,1,.46-.12A1.56,1.56,0,0,1,69.29,77.21Zm3.44-11.89.06-.11,1.65.43-.55-.79,1.55.39-.07-.56,1.45.37-.22-.43a8.2,8.2,0,0,0,1.52-.4c.75-.36.89-.4,1.45.1l1.06,1a1.51,1.51,0,0,0-.11-1.88,1.72,1.72,0,0,0-1.66-.79c-2.39.25-4.79.42-7.18.57a1.38,1.38,0,0,1-1-.36c-.58-.69-1.05-1.46-1.57-2.2l.17-.14.71.15-.34-.89.71.15L70.18,59l.79.09L70.44,58l.7-.09c0-.7-.57-.76-1-.85-1.71-.34-3.43-.66-5.16-.93-1.16-.19-2.33-.3-3.5-.44a1.18,1.18,0,0,0-.36.08l.19.72L60,55.74l.56,1-1.32-.87-.08.12.48.74-.1.07-1.11-.93-.09.09.95,1.4-.6.08.33.88-.72-.14.31.68-.52,0,5.3,6.61.1-.83,1.74,1.61L64.76,65l.14-.1,1.69,1.54L66.08,65l1.84,1.65.12-.15-.76-1.14.12-.1,1.78,1.21.1-.13-.76-1,2,1.25.11-.14-.73-1,.08-.1,1.93,1.13.08-.12-.81-1.07,2.19.93.07-.14ZM27.89,80.79l.27,0c.24-1.14.53-2.28.7-3.43a1.43,1.43,0,0,1,.71-1c.81-.58,1.57-1.24,2.33-1.9a2.31,2.31,0,0,0,.78-1.88c0-1.25-.09-2.51-.08-3.76,0-1.58,0-3.16.12-4.73a11.64,11.64,0,0,1,1.6-4.65c.44-.81.34-1-.58-1.07a4.75,4.75,0,0,0-4,1.52,11.87,11.87,0,0,0-2.84,5.8,1.21,1.21,0,0,0,.42,1.25,5.41,5.41,0,0,1,1.78,3.55,11.79,11.79,0,0,1-.86,5.37,21,21,0,0,0-.92,2.92A2.05,2.05,0,0,0,27.89,80.79Zm2.17-24.26a11.7,11.7,0,0,0-4.27,7.15c-.33,1.54.13,3.23-.93,4.64A3.41,3.41,0,0,0,26.21,66a13.76,13.76,0,0,1,2.69-6.76,14,14,0,0,1,2.3-2,3.08,3.08,0,0,1,.91-.27l-2,1.39.11.19c.23-.12.47-.23.69-.37a4.76,4.76,0,0,1,3.26-.62,2.44,2.44,0,0,0,.74.08,3.38,3.38,0,0,0,.75-.31c-.1-.22-.15-.53-.32-.65a31.16,31.16,0,0,0-2.92-1.83,4.33,4.33,0,0,0-1.73-.41,6.38,6.38,0,0,0-5,2.33,8.19,8.19,0,0,0-2.09,3.63L24.69,59l.18.1a10,10,0,0,0-1.59,4.77,8.39,8.39,0,0,1-2.41,5.73,3,3,0,0,0-.42,3,8.88,8.88,0,0,1,1.49-2,7.69,7.69,0,0,0,3-6.09A10.3,10.3,0,0,1,29,57,5.57,5.57,0,0,1,30.06,56.53Zm12.72,25a4.39,4.39,0,0,0-.55-.83,13.42,13.42,0,0,0-1.35-1.06c-.65-.45-.67-.72-.17-1.32s1.16-1.44,1.69-2.19a1.71,1.71,0,0,0,.26-.84c0-.4-.24-.55-.6-.4-1.12.47-2.22,1-3.35,1.45-1.93.74-3.89,1.4-5.83,2.11-.35.13-.79.22-1,.48-.67.89-1.25,1.85-1.87,2.79a4.13,4.13,0,0,0,2.37.67.91.91,0,0,1,.55.2,1.66,1.66,0,0,0,1.46.37c.32,0,.64.08,1,.08a2.61,2.61,0,0,0,.94-.07c1.48-.55,3.06-.75,4.51-1.41A5.48,5.48,0,0,1,42.77,81.54ZM38.6,49l1.14-.84.13.11-.23.87,1.48-1.22-.14,1,.14.1,1.25-1.48.17.85,1.37-2.17-.14-.2c-2.5.8-5,1.41-7.65.59a7.68,7.68,0,0,1,1.62-1c.88-.4,2-.36,2.65-1.23.07-.08.36,0,.56,0l.36-.78.23.52.56-.81c.58.67.71,0,1-.24l-.42-.73-.93.12,0-.45H39.82l.28-.58-1.95.22,0-.2-2,.21v-.18l-.86.44.28-.6c-.71-.21-1.22.63-2,.12-.28-.18-1,.28-1.5.52a3.54,3.54,0,0,0-1.08.77c-.36.4-.08,1.56.37,1.65l.29-.53.28.36.23-.41.34.39.22-.39.46.64.07-.74.35.48.27-.33.31.6.25-.7.33.52.36-.6.08,1,.48-1,.13.78.37-.6.16.85.58-.88.27.23.29-.41.22.58,1.28-.39a3.85,3.85,0,0,1-1.15,1c-1.36.79-2.92.78-4.41,1.09a19.91,19.91,0,0,0-3.27,1c-.4.16-.67.65-1,1l.79.24,1.34-.66.16.47,2.28-.14,0,.38L35,48v.17l1.24.14-.08.19h1.65l-.08.49.78-.43ZM62.2,88.06l.17.17-1.54,2.57.22.13a8,8,0,0,0,2.51-3.19,2.38,2.38,0,0,0-.34-2.94,2.05,2.05,0,0,1-.57-2.2,2.19,2.19,0,0,0,0-1c-.12-.66-.28-1.31-.43-2a1.28,1.28,0,0,0-1.44-1.13,12.27,12.27,0,0,0-1.56.23,23.78,23.78,0,0,1-8,.39,5.86,5.86,0,0,0-.83,0l0,.23c.61.26,1.31.84,1.8.69.79-.23,1.44.36,2.21,0,.38-.15,1,.24,1.45.27s1.07-.2,1.51.27l.06,0-.1-.48,1,.58-.15-.92.79.6,0-.78.65.79.14-.5h.22l.15,2.69.53-1.5c.07,1.33-.12,2.5-1.46,3.19a5.9,5.9,0,0,1-1.21.43A7.65,7.65,0,0,0,56,85.92c1.81.07,3.13-1.17,4.7-1.61l.18.21-.94,1.13-.1-.21-2.69,1.49A4.63,4.63,0,0,0,59,86.69c.94-.41,1.82-1,2.77-1.51l.41,1.44-.08,0-.28-.38-.47,1.38-.3-.47-.19,1.58-.33-.49,0,.24-.94.47-.11-.2-.6,1.35C60.42,89.9,61.26,88.91,62.2,88.06ZM51.46,40.22a2.91,2.91,0,0,0,.21.38c.11.15.28.41.36.39s.47-.23.48-.37a11.44,11.44,0,0,0,0-2.68c-.07-.41-.69-.72-1.13-1.14L50.76,38l-.67-1.11-.58,1.06a.76.76,0,0,1-.26-.42c-.08-.21-.17-.42-.26-.63-.18.13-.34.28-.53.4a2.31,2.31,0,0,1-.37.16c-.05-.18-.19-.38-.14-.53.1-.35.19-.71-.25-.76a.91.91,0,0,0-.72.46,15.1,15.1,0,0,0-.86,2.47c-.22.95.22,1.31,1.15,1l.2,1c1.05.26.44-1.08,1.09-1.13l.73,1.35.64-.88C50.56,41.08,50.56,41.08,51.46,40.22ZM44,67.93c.53-.06,1-.1,1.4-.17l5-.75c.57-.09.89-.39.79-1.15l-6.1.5a1.53,1.53,0,0,1-.1-.28c0-.2,0-.4,0-.6a21.08,21.08,0,0,1,.77-7.28c0-.18-.08-.4-.12-.61-.2.1-.47.14-.6.3a2,2,0,0,0-.32.75A24,24,0,0,0,44,67.93Zm8.65-2.17-.05-.11L54,64.44l-.79.1,1.13-1.38-.1-.08-.52.28-.06-.09,1-1.44-.1-.07-.93.89-.11-.11L54.63,61l-.94.59-.11-.14,1.89-2.07-.13-.12-1,.74-.08-.1,1.16-1.34a1.5,1.5,0,0,0-.7.25c-2.16,1.31-2.11,1.32-2.34,3.79-.16,1.72-.15,3.54-1.66,4.84.47.51,1.16.92,1.31,1.47.36,1.41,1.16,1.43,2.25,1a.68.68,0,0,1,.15,0c.49-.06.56-.37.26-.66a13.33,13.33,0,0,0-1.33-1.06l-1.09-.83.73-.81-.4-.11.57-.82ZM43.87,49.18l-.12-.24c-.36.13-.73.23-1.08.39a7.22,7.22,0,0,1-5.26.39,23.06,23.06,0,0,0-7.5-.83,2.58,2.58,0,0,0-2.11,1.23,1.49,1.49,0,0,0-.12.54l.2.09.46-.6.19.25,1.38-.45.15.3a7.62,7.62,0,0,1,1.51-.61c.39-.07.95.31,1.23.15.64-.38,1.22.05,1.8,0a8.3,8.3,0,0,1,2.58.81c.34.11.7.19,1.05.28l0,.43.74-.32v.58l1.26-1-.09.74,1-.88.24.67.62-.87.16.13.09.67ZM54.22,28l.06-.24c-.26-.17-.51-.47-.77-.48a18,18,0,0,0-2.8.07.94.94,0,0,0-.52.77,20.69,20.69,0,0,0,.7,3,1.61,1.61,0,0,0,.78.87c.35.16,1,.27,1.21.07A3.85,3.85,0,0,0,54.25,29H52.89l0-.63Zm.1,15.44a2.64,2.64,0,0,1,1.48-2.14c2.2-1.29,3.57-3.33,5-5.37a6.52,6.52,0,0,0,.49-1.1L61,34.6a8.58,8.58,0,0,0-1.44,1.34,15.37,15.37,0,0,1-4.85,4.84A1.78,1.78,0,0,0,54.32,43.42ZM55,47.82l.12.14a2.55,2.55,0,0,0-1.48,3c.89-1.74,3.12-2.19,4-4.17l-1,.45c.56-.48,1.21-.83,1.42-1.75l-.89.58.24-1.45c-.77.65-1.46,1.27-2.19,1.85a4.36,4.36,0,0,0-1.47,2.23Zm-9.63,36.6.09,0,.5-.47-.58,3.07.23.05c.17-.59.29-1.19.52-1.75a14.57,14.57,0,0,1,.79-1.48l.2.11-.42.79.11.06,1.63-1.4.07.1L47.23,86A12.88,12.88,0,0,0,49,83.92a15.07,15.07,0,0,0,.77-1.43c-.57-.08-1.14-.18-1.71-.23a26.53,26.53,0,0,1-2.74-.2c-.91-.17-1-.22-1.25.74h2ZM58.18,54.51v.43c.87.11,1.75.19,2.62.32Q65.88,56,71,56.86a10.34,10.34,0,0,0,1.17.22c.14,0,.36-.23.41-.4a.52.52,0,0,0-.22-.46,3.46,3.46,0,0,0-.94-.24c-3.67-.5-7.34-1-11-1.46A17.62,17.62,0,0,0,58.18,54.51ZM76.43,81.92c-.19-.55-.39-1.07-.56-1.59a6.54,6.54,0,0,0-.3-1A.65.65,0,0,0,75,79a3.23,3.23,0,0,0-.79.51c-.53-.27-.63-.64-.19-1a.86.86,0,0,0,0-1.44c-.23-.23-.48-.63-.86-.25s-.11.62.19.85c.07.05.09.16.07.12l-.8,1.36-.7.11.68,1.28c.41.23.79.32.95.56a6.91,6.91,0,0,1,.54,1.35l.38-.71.47,1,.08-1.27L76,82.77l-.15-1.13ZM54.76,66.44c1.47-.41,2.93-.8,4.38-1.24a.7.7,0,0,0,.31-.61,16,16,0,0,0-.68-2.37,8.79,8.79,0,0,0-.93-1.43,2,2,0,0,0-.16.4c0,.35,0,.7,0,1.05.1,1.94.1,1.94-1.75,2.4l-.29.08C54.8,65,54.57,65.38,54.76,66.44ZM54,52.67a17,17,0,0,1,1.66-2,24.84,24.84,0,0,1,2.11-1.41,3.67,3.67,0,0,0,1.06-4.38A4.56,4.56,0,0,0,58.25,46a5.27,5.27,0,0,1-2.54,3.36A8.42,8.42,0,0,0,54,51.13,1.18,1.18,0,0,0,54,52.67ZM50.32,34.61c-1.58.2-2.87-.58-4.23-1.13a33.49,33.49,0,0,0-3.23-1.18c-1.14-.33-2.73-.27-3.3.54l1.78.67-.4-.66,1.69.94-.31-.86,1.17.83L43.37,33l1.56,1.33,0-.39c.29.16.76.49.81.44.39-.44.55,0,.78.15s.42.25.66.38l0-.38C48.4,35.39,49.43,35.43,50.32,34.61Zm1.92,20.15c-.22,0-.47.17-.53.11-.71-.8-1.26-.14-1.77.23-.8.58-.76,1,.13,1.48a6.43,6.43,0,0,0,3.85.65,4,4,0,0,0,.84-.36l-2.58-2Zm1,27.35-.09.6-1.89-.25c.09.21.09.24.11.25l.26.14a10.31,10.31,0,0,0,6.81.45c1.06-.27,1.17-.47,1.06-1.73L59,82.65l-.3-.64-.35.8-.19-.2-.26-.89-.46,1.07-.16-.69-.46.4-.13-.39-.39.44-.43-.92-.23.68-1.47.22L54,82.2l-.24.49Zm6.46-14.68c.11-.43.19-.79.29-1.14.16-.55,0-.8-.58-.64-1.41.42-2.81.88-4.21,1.32a.68.68,0,0,0-.47,1l.65-.38.11.67.63-.57.15.72.62-.81L57,68.75l.52-1.24.08,1,.16,0,.37-1.09.37,1,.32-1.12.34.62.3-1.12.14.32ZM57.43,35.15a3.91,3.91,0,0,1,3-2.46,12.15,12.15,0,0,1,1.5-.08c1,0,1.53-.83,2.39-1.42C60.21,30.66,57.53,32.22,57.43,35.15ZM43,53.17c1.54,1.12,5.05.22,6.6-1.59l-1,.13a3.92,3.92,0,0,0-1.34.77c-.49.47-1-.24-1.45.12l.08-.54-.62.53.17-.7-.67.47L45.33,51ZM35.2,27.43l-1.41-.79.69-.13,0-.26A3.22,3.22,0,0,0,33.34,26c-.25,0-.46.46-.63.75-.06.1.08.31.14.55-.69.83-.69.92.17,1.81a1,1,0,0,0,.21.21c.27.14.54.27.81.4l.19-.73.88-.75-.54-.44ZM57.88,43l-.1,2.18c1.14-1.46.77-3.22,1.47-4.65-1.78.94-3.53,2.68-3.12,4.32Zm1.47-4.14-3,2.4c-.37.3-.75.58-1.09.92a2.2,2.2,0,0,0-.13,2.93,12.07,12.07,0,0,1,1-2.32A10.5,10.5,0,0,1,58.13,41,2.78,2.78,0,0,0,59.35,38.91Zm-3.9.56c2.32-1.67,3.67-4.3,6.24-5.68a2.82,2.82,0,0,0-2.33.91c-1,.89-2,1.76-3,2.67A3,3,0,0,0,55.45,39.46ZM36.22,38l.4.95c.33-1.42,0-2.55-.88-2.82s-2.23.61-2.66,1.79c2.48-.18,2.48-.18,2.92.77Zm36.09-6a2.65,2.65,0,0,0-4.28-1,2.58,2.58,0,0,1,2.43,1.51l.48-.63.44,1.26h.21l.07-1.37.28.06ZM54.47,38.8c.4.24.57.18.53-.47s.23-1.49-1-1.22c0,0-.07-.07-.11-.1-.57-.36-.91-.24-1,.42a2.29,2.29,0,0,0,0,1,5.74,5.74,0,0,0,.57,1.09ZM48.84,54.4s-.1-.08-.11-.16c-.08-.49-.17-.86-.66-.25,0,.06-.19.06-.28.07-.6,0-.46.42-.35.74a6.91,6.91,0,0,0,.54.95,4.13,4.13,0,0,0,.56-.3c.58-.42,1.13-.88,1.72-1.28.36-.24.8-.36,1.16-.6.09-.06,0-.35,0-.54a1.59,1.59,0,0,0-.54,0c-.13.05-.18.28-.31.35C50.07,53.74,49.5,54,48.84,54.4ZM72,78.3a.59.59,0,0,0,.25-.09,1.87,1.87,0,0,0,0-1.91A4.35,4.35,0,0,1,71.47,75c-.08-.34,0-.71-.46-.57a.91.91,0,0,0-.44.78,7.39,7.39,0,0,0,.64,1.58C71.45,77.27,71.73,77.76,72,78.3Zm-6.75,2.63a4.48,4.48,0,0,0,.39-.88c.08-.37,0-.78.08-1.14.19-.85,0-1.2-.68-1.45v2.25l-1-.84c.18.57.46,1,.39,1.34-.13.7-.06,1.07.58,1.36l-.1-.85ZM52.1,22.25a5.56,5.56,0,0,0-2.2.19,7.23,7.23,0,0,0-1.6,1.81l.15.2A7.13,7.13,0,0,0,49.57,24C50.38,23.46,51.15,22.9,52.1,22.25ZM73,50.9l.27,5.16C74.14,55.62,74,51.64,73,50.9ZM54.7,33,56,33,59,31a2.42,2.42,0,0,0-2.12.36C56.15,31.94,55.41,32.51,54.7,33ZM34.92,31.5c0-1.34.68-1.82,1.9-1.74-.24-.63-.62-.88-1.14-.81a1.4,1.4,0,0,0-1.35,1A1.22,1.22,0,0,0,34.92,31.5Zm39,26.55-.23.07c0,.06-.1.13-.09.19.17,1.33.34,2.67.54,4,0,.12.22.21.34.32.09-.15.28-.31.26-.45-.11-1-.25-2-.42-3A6.54,6.54,0,0,0,73.95,58.05ZM42.35,83.34l.23.09a2.68,2.68,0,0,0,.32-1.06c0-.19-.51-.37-.82-.44a2.35,2.35,0,0,0-1,0c-.64.16-1.4.22-1.56,1.08.78,0,1.51-.91,2.23,0l1-.57Zm14-11.75a2.11,2.11,0,0,0-3.06-1.07A3.43,3.43,0,0,0,56.37,71.59Zm5.8-38.44c-1.78-.73-4.06.5-4.1,2.14C59.73,33.85,59.73,33.85,62.18,33.14ZM51,26.66c1.79.2,2.1,0,1.83-1.18-.13-.57-.58-.77-1-.35A8,8,0,0,0,51,26.66ZM55.76,53a5.75,5.75,0,0,1,.44-1c.18-.26.53-.41.68-.68a10.86,10.86,0,0,0,.56-1.42C55.77,50.38,55.14,51.61,55.76,53ZM85.17,74.63,84,73.75c-.95,1.06-.84,1.66.32,2.25ZM38.49,83c-1.19-.44-2.68.48-2.55,1.44L36.6,84l.56.68.1-.63C38.16,84.29,38,83.42,38.49,83Zm27.12,9c.92-.85.7-2-.61-3.32l-.42.89.64.22-.31.57C66,90.58,65.27,91.47,65.61,92ZM45.53,38.79a2.87,2.87,0,0,0,.68-2.9A2.61,2.61,0,0,0,45.53,38.79Zm1.26,52.83c-.79,1-.78,1.28,0,1.84a2.09,2.09,0,0,0,.68.19c.05-.25.22-.55.13-.74A9.77,9.77,0,0,0,46.79,91.62Zm4.76-21.56c.34-1.2.24-1.43-.87-2C50.06,69.13,50.15,69.36,51.55,70.07Zm15.8,24.22c-.08-1-.51-1.69-.88-1.5s-.81.72-.73.94C66,94.47,66.72,94.18,67.35,94.28ZM49.37,29a3.79,3.79,0,0,0,2,3.42ZM28.77,91.7c-.16-.22-.36-.51-.59-.76a2,2,0,0,0-.47-.29,1.76,1.76,0,0,0-.29.54c-.1.84.28,1.26,1,1.31ZM56.44,72a5.35,5.35,0,0,1-3.64-1.43A2.76,2.76,0,0,0,56.44,72ZM53.13,25.07c0,.49.07,1,.16,1.45a.56.56,0,0,0,.4.35.62.62,0,0,0,.46-.28A1.12,1.12,0,0,0,53.13,25.07ZM34.92,85.52a1.48,1.48,0,0,0-1.12,1.75l.81.09-.1-.63.41.12Zm35.2-12.91a1.54,1.54,0,0,0-.31,2.29,3.89,3.89,0,0,0,.58-1.09A3.48,3.48,0,0,0,70.12,72.61ZM72.57,57c.42.36.75.73.82.68a1.61,1.61,0,0,0,.67-.75c.05-.14-.35-.63-.43-.61A5.37,5.37,0,0,0,72.57,57Zm-3,18.44-.25.07a6.64,6.64,0,0,0,.16.7,6,6,0,0,0,.44,1.11,1,1,0,0,0,1.08.6ZM64.29,29.51l-.09.19.79.86,0-.16,1.73.14,0-.1ZM51.68,24.73c1.15.16,1.18.12.75-1.31A1.09,1.09,0,0,0,51.68,24.73ZM47.23,97l.21-.25L46.5,95.6l-.77.44ZM67,95.44a.92.92,0,0,0-1.27-.33c-.15.06-.22.31-.33.47a1.93,1.93,0,0,0,.58.11A8.66,8.66,0,0,0,67,95.44Zm-29.5-7.73-.7,1.07c.2.07.42.23.58.18C37.93,88.79,37.85,88.39,37.52,87.71ZM69,94.95l1.46.13C70.42,94.25,70.13,94.19,69,94.95ZM55.55,37l.29-.16a.88.88,0,0,0-.73-1.13l-.22.13ZM75.19,43l.3-.36-1.09-.87-.24.29ZM45.92,31.27l-.13.19,1.63.64C47.21,31.51,46.8,31.31,45.92,31.27Zm-12.25,58,.16,1.33C34.5,89.82,34.48,89.57,33.66,89.24ZM49.25,28.66c.84-.62.91-1,.35-1.44Z" style="fill: #d4292f"/>
      <path d="M75.19,43l-1-.94.24-.29,1.09.87Z" style="fill: #d4292f"/>
      <path d="M47.64,60c0,.84,0,1.68.08,2.52s.08,1.64.08,2.46a14.58,14.58,0,0,1-.14-5Z" style="fill: #d4292f"/>
      <path d="M50.79,28.57l.3-1,1.51.54-.19.65Z" style="fill: #d4292f"/>
      <path d="M53,30.8a1.78,1.78,0,0,1-.1.27l-1.15.07c0-.11,0-.33,0-.33C52.16,30.8,52.56,30.8,53,30.8Z" style="fill: #d4292f"/>
      <path d="M73.52,80.21c.62.09,1.13.29,1.57-.35l-.55,1.24Z" style="fill: #d4292f"/>
    </g>
    <path d="M53.9,119.1a.9.9,0,0,1-.46-.13l-6.64-3.92A15.06,15.06,0,0,0,39.15,113H21.8a16,16,0,0,1-16-16V14.43A6.33,6.33,0,0,1,12.16,8.1H95.63A6.33,6.33,0,0,1,102,14.43V97a16,16,0,0,1-16,16H68.64A15.06,15.06,0,0,0,61,115.06L54.35,119A.9.9,0,0,1,53.9,119.1ZM12.16,9.91a4.52,4.52,0,0,0-4.52,4.52V97A14.18,14.18,0,0,0,21.8,111.16H39.15a16.87,16.87,0,0,1,8.56,2.34l6.18,3.64,6.18-3.64a16.87,16.87,0,0,1,8.56-2.34H86A14.18,14.18,0,0,0,100.15,97V14.43a4.52,4.52,0,0,0-4.52-4.52Z" style="fill: #d4292f;stroke: #d4292f;stroke-miterlimit: 10;stroke-width: 0.5px"/>
  </g>
  <g>
    <path d="M167,33.31A17.6,17.6,0,1,0,184.6,50.87,17.61,17.61,0,0,0,167,33.31Zm0,28.32a10.72,10.72,0,1,1,10.76-10.76A10.78,10.78,0,0,1,167,61.63Z" style="fill: #d4292f"/>
    <path d="M188.1,72.06l.06-.06a29.91,29.91,0,1,0-42.38,0,3.51,3.51,0,0,0,2.48,1,3.42,3.42,0,0,0,3.44-3.44,3.57,3.57,0,0,0-1.08-2.48,23,23,0,1,1,32.65.06L153.35,97.07l4.9,4.84L188.1,72.06Z" style="fill: #d4292f"/>
    <path d="M209.23,50.87a42.26,42.26,0,1,0-72.17,29.85,3.4,3.4,0,0,0,2.48,1A3.46,3.46,0,0,0,143,78.3a3.57,3.57,0,0,0-1.08-2.48,35.38,35.38,0,1,1,50.08.06l-29.91,29.91,4.9,4.84,29.91-29.91a42.08,42.08,0,0,0,12.35-29.85h0Z" style="fill: #d4292f"/>
  </g>
  <g>
    <polygon points="265.27 58.55 262.88 58.55 265.21 51.87 271.9 62.88 278.59 51.87 280.92 58.55 278.52 58.55 278.52 62.58 294.52 62.58 294.52 58.55 291.41 58.55 280.82 31.78 271.9 47.41 262.98 31.78 252.39 58.55 249.28 58.55 249.28 62.58 265.27 62.58 265.27 58.55" style="fill: #d4292f"/>
    <path d="M314.15,51.05A42.25,42.25,0,1,0,242,80.89a3.44,3.44,0,0,0,5.9-2.4,3.54,3.54,0,0,0-1-2.49,35.38,35.38,0,1,1,50.07.06L267,105.94l4.87,4.87,29.9-29.9A42.13,42.13,0,0,0,314.15,51.05Z" style="fill: #d4292f"/>
  </g>
  <g>
    <path d="M335.58,45.17l5.93-18.06h3.07l4.18,12.23h.05l4.13-12.23H356l5.91,18.06h-4.36l-3.17-10.53h-.05l-3.77,10.53h-3.64l-3.77-10.53h-.05l-3.17,10.53Z" style="fill: #d4292f"/>
    <path d="M362.86,38.61a6.67,6.67,0,1,1,13.34,0,6.67,6.67,0,1,1-13.34,0Zm9.42,0c0-2-1-3.43-2.73-3.43s-2.76,1.42-2.76,3.43,1.06,3.51,2.76,3.51S372.27,40.57,372.27,38.61Z" style="fill: #d4292f"/>
    <path d="M377.93,38.61c0-4,2.55-6.79,6.45-6.79a6.75,6.75,0,0,1,5,1.81L386.93,36a3.09,3.09,0,0,0-2.32-.85c-1.7,0-2.74,1.44-2.74,3.46s1,3.51,2.74,3.51a3.18,3.18,0,0,0,2.32-.83l2.4,2.37a6.75,6.75,0,0,1-5,1.81C380.48,45.48,377.93,42.66,377.93,38.61Z" style="fill: #d4292f"/>
    <path d="M391.42,32.14h3.77v4.93h.57l3.07-4.93h4.31L399,38.59l4.7,6.58h-4.59l-3.46-5h-.41v5h-3.77Z" style="fill: #d4292f"/>
    <path d="M404.37,38.61a6.67,6.67,0,1,1,13.34,0,6.67,6.67,0,1,1-13.34,0Zm9.42,0c0-2-1-3.43-2.73-3.43s-2.76,1.42-2.76,3.43,1.06,3.51,2.76,3.51S413.79,40.57,413.79,38.61Z" style="fill: #d4292f"/>
    <path d="M420.29,45.17v-13H427c2.55,0,4.77,1,4.77,3.54a2.73,2.73,0,0,1-1.94,2.5v.05a3.08,3.08,0,0,1,2.48,3.1c0,1.91-1.42,3.84-4.75,3.84Zm5.91-7.64c1,0,1.7-.39,1.7-1.37s-.75-1.29-1.7-1.29h-2.14v2.66Zm.7,4.9c1.06,0,1.42-.54,1.42-1.14s-.36-1.24-1.42-1.24h-2.84v2.37Z" style="fill: #d4292f"/>
    <path d="M434,38.61c0-4,2.55-6.79,6.45-6.79a6.75,6.75,0,0,1,5,1.81L443.05,36a3.09,3.09,0,0,0-2.32-.85c-1.7,0-2.74,1.44-2.74,3.46s1,3.51,2.74,3.51a3.18,3.18,0,0,0,2.32-.83l2.4,2.37a6.75,6.75,0,0,1-5,1.81C436.6,45.48,434,42.66,434,38.61Z" style="fill: #d4292f"/>
    <path d="M447.54,32.14h3.77v4.93h.57l3.07-4.93h4.31l-4.18,6.45,4.7,6.58h-4.59l-3.46-5h-.41v5h-3.77Z" style="fill: #d4292f"/>
    <path d="M461.37,32.14h3.77v7.35h.05l5-7.35h3.25v13h-3.77V37.81h-.05l-5,7.35h-3.28Z" style="fill: #d4292f"/>
    <path d="M476.85,32.14h3.77v7.35h.05l5-7.35h3.25v13h-3.77V37.81h-.05l-5,7.35h-3.28Zm1.57-3.95,2-1.94a2.7,2.7,0,0,0,2.3,1.65,2.6,2.6,0,0,0,2.48-1.65L487,28.19a4.81,4.81,0,0,1-4.26,2.58A5.13,5.13,0,0,1,478.43,28.19Z" style="fill: #d4292f"/>
  </g>
  <g>
    <path d="M341.72,59.7h-5.6V56.24h16l-1.24,3.46h-5.19V74.3h-4Z" style="fill: #d4292f"/>
    <path d="M357.44,79.08h-3.77V61.27h3.77v1.29h.05a4.5,4.5,0,0,1,3.66-1.6c3.41,0,6,2.81,6,6.79s-2.55,6.86-6,6.86a4.5,4.5,0,0,1-3.66-1.6h-.05Zm2.81-7.87c1.73,0,2.94-1.47,2.94-3.48a3,3,0,1,0-5.91,0C357.28,69.74,358.52,71.21,360.25,71.21Z" style="fill: #d4292f"/>
    <path d="M368.74,70.23c0-2.06,1.73-4.26,5.75-4.26a16.79,16.79,0,0,1,2.19.13v-.18c0-1.21-1-1.65-2.09-1.65a5.62,5.62,0,0,0-3,1L369.33,63a8.23,8.23,0,0,1,5.42-2c3.41,0,5.7,1.94,5.7,5.06V74.3h-3.72V73h-.05a3.73,3.73,0,0,1-3.51,1.63A4.3,4.3,0,0,1,368.74,70.23Zm7.95-.9v-.44a9,9,0,0,0-1.65-.18c-1.73,0-2.45.62-2.48,1.5s.65,1.5,1.81,1.47A2.25,2.25,0,0,0,376.69,69.32Z" style="fill: #d4292f"/>
    <path d="M383.71,61.27h3.77v4.8h4.26v-4.8h3.77v13h-3.77V69.38h-4.26V74.3h-3.77Z" style="fill: #d4292f"/>
    <path d="M398.08,67.75c0-4,2.55-6.79,6.45-6.79a6.75,6.75,0,0,1,5,1.81l-2.4,2.37a3.09,3.09,0,0,0-2.32-.85c-1.7,0-2.74,1.44-2.74,3.46s1,3.51,2.74,3.51a3.18,3.18,0,0,0,2.32-.83l2.4,2.37a6.75,6.75,0,0,1-5,1.81C400.63,74.61,398.08,71.8,398.08,67.75Z" style="fill: #d4292f"/>
    <path d="M411.57,61.27h11.35v13h-3.77V64.55h-3.82V74.3h-3.77Z" style="fill: #d4292f"/>
    <path d="M425.45,67.75a6.67,6.67,0,1,1,13.34,0,6.67,6.67,0,1,1-13.34,0Zm9.42,0c0-2-1-3.43-2.73-3.43s-2.76,1.42-2.76,3.43,1.06,3.51,2.76,3.51S434.87,69.71,434.87,67.75Z" style="fill: #d4292f"/>
    <path d="M445.14,79.08h-3.77V61.27h3.77v1.29h.05a4.5,4.5,0,0,1,3.66-1.6c3.41,0,6,2.81,6,6.79s-2.55,6.86-6,6.86a4.5,4.5,0,0,1-3.66-1.6h-.05ZM448,71.21c1.73,0,2.94-1.47,2.94-3.48a3,3,0,1,0-5.91,0C445,69.74,446.23,71.21,448,71.21Z" style="fill: #d4292f"/>
    <path d="M459.93,64.55h-3.82V61.27h11.71l-1.21,3.28h-2.92V74.3h-3.77Z" style="fill: #d4292f"/>
  </g>
</svg>
