<svg xmlns="http://www.w3.org/2000/svg" width="545.33" height="246.75" viewBox="0 0 545.33 246.75">
  <title>московский транспорт, метро...</title>
  <g>
    <path d="M353.91,9.89a3.57,3.57,0,0,1,3.41-2.54h176.1A3.58,3.58,0,0,1,536.83,12L504.08,113.74a3.57,3.57,0,0,1-3.41,2.54H324.57a3.58,3.58,0,0,1-3.41-4.65Z" style="fill: #e95b0c"/>
    <g>
      <path d="M487.6,59.2h0a22.49,22.49,0,0,0-12-6.54L492.25,36V26h-46V38h29.41L458.41,55.28v8.5l1.82-.29c.8-.07,1.6-.15,2.54-.29a15.94,15.94,0,0,1,2.61-.07,18.77,18.77,0,0,1,11,3,9.37,9.37,0,0,1,4.21,8.28,9.87,9.87,0,0,1-3.85,8.28h0a14.37,14.37,0,0,1-9.44,3.12,21.58,21.58,0,0,1-8.64-1.6,25.39,25.39,0,0,1-7.19-4.79l-1.09-1-8.64,8.64,1.09,1.09a33.29,33.29,0,0,0,10.75,7h0a36.88,36.88,0,0,0,13.94,2.54A27.32,27.32,0,0,0,486.15,91a21.66,21.66,0,0,0,7.62-16.63C493.63,68.28,491.67,63.27,487.6,59.2Z" style="fill: #fff"/>
      <path d="M423.41,36h0c-6.46-6.75-15.32-10-26.36-10h-29.7l-3,11.69h9.44V96.45H397c11,0,19.9-3.27,26.36-9.88h0c6.39-6.68,9.51-15.1,9.51-25.27S429.8,42.65,423.41,36Zm-3.85,25.34c0,8.13-2.25,13.87-6.54,17.72s-9.8,5.88-16.56,5.88h-9.66V37.78h9.66c6.83,0,12.34,2,16.56,6h0C417.31,47.58,419.56,53.32,419.56,61.31Z" style="fill: #fff"/>
    </g>
  </g>
  <path d="M40.38,132.84a3.57,3.57,0,0,1,3.41-2.54h451a3.58,3.58,0,0,1,3.41,4.65L465.43,236.68a3.57,3.57,0,0,1-3.41,2.54H11a3.58,3.58,0,0,1-3.41-4.65Z" style="fill: #e95b0c"/>
  <g>
    <path d="M334.39,7.35H86a7.3,7.3,0,0,0-7.4,5.38c-8,24.56-23.94,73.68-31.92,98.24a3.83,3.83,0,0,0,3.86,5.31H298.93a7.3,7.3,0,0,0,7.4-5.38c8-24.56,23.94-73.68,31.92-98.24a3.83,3.83,0,0,0-3.86-5.31" style="fill: #e4000d"/>
    <path d="M248,78.16h20.42V45.48H258Zm40.29,0L284.81,89H227.2l3.53-10.89h5.73l14.16-43.57h28.74V78.16Z" style="fill: #fff"/>
    <polygon points="225 78.16 221.46 89.05 170.73 89.05 170.73 34.59 181.62 34.59 181.62 78.16 205.13 78.16 205.13 34.59 216.02 34.59 216.02 78.16 225 78.16" style="fill: #fff"/>
    <polygon points="165.28 89.05 153.49 89.05 143.29 55.57 143.13 55.57 131.99 89.05 131.53 89.05 121.89 89.05 121.43 89.05 110.29 55.57 110.13 55.57 99.94 89.05 88.14 89.05 105.83 34.59 114.05 34.59 126.64 73.33 126.79 73.33 139.38 34.59 147.59 34.59 165.28 89.05" style="fill: #fff"/>
  </g>
  <g>
    <path d="M64.34,176.07l3.27-3.27a9.42,9.42,0,0,0,6.34,2.44c3.12,0,5.22-1.39,5.22-3.72S77.18,168,74,168h-3.3v-4.32h3.38c2.67,0,4.24-1.35,4.24-3.3,0-2.33-2-3.27-4.28-3.27a9.78,9.78,0,0,0-5.82,2.1L65,156a14.69,14.69,0,0,1,9.38-3.42c5.22,0,9,2.89,9,7.09a6.41,6.41,0,0,1-3.79,5.71v.08a6.52,6.52,0,0,1,4.88,6.31c0,4.24-3.94,8-10.13,8A13.85,13.85,0,0,1,64.34,176.07Z" style="fill: #fff"/>
    <path d="M87.8,169.95c0-5.78,3.9-9.87,9.16-9.87,5,0,9,3.23,9,10.4v1H92.83a4.72,4.72,0,0,0,5,4.09,6,6,0,0,0,4.28-1.8l3,3a10.67,10.67,0,0,1-7.77,3C92.31,179.78,87.8,176.14,87.8,169.95ZM101.05,168c-.23-2.29-1.69-4.05-4.05-4.05s-3.87,1.8-4.2,4.05Z" style="fill: #fff"/>
    <path d="M107.78,179.33v-3.9a2.55,2.55,0,0,0,.94.19c1.54,0,2-1.31,2.29-4.84.53-6.34.68-10.25.68-10.25h13.74v18.81h-4.69V164.58h-5c-.08,1.58-.15,3.75-.3,5.82-.45,6.19-1.54,9.31-5.71,9.31A6,6,0,0,1,107.78,179.33Z" style="fill: #fff"/>
    <path d="M129.29,169.95c0-5.78,3.9-9.87,9.16-9.87,5,0,9,3.23,9,10.4v1H134.32a4.72,4.72,0,0,0,5,4.09,6,6,0,0,0,4.28-1.8l3,3a10.67,10.67,0,0,1-7.77,3C133.79,179.78,129.29,176.14,129.29,169.95ZM142.54,168c-.23-2.29-1.69-4.05-4.05-4.05s-3.87,1.8-4.2,4.05Z" style="fill: #fff"/>
    <path d="M151.48,160.53h4.69v7.17h7v-7.17h4.69v18.81h-4.69v-7.58h-7v7.58h-4.69Z" style="fill: #fff"/>
    <path d="M171.71,169.91c0-5.74,4-9.83,9.5-9.83s9.5,4.09,9.5,9.83-4.05,9.87-9.5,9.87S171.71,175.69,171.71,169.91Zm14.15,0c0-3.27-1.84-5.63-4.65-5.63s-4.65,2.36-4.65,5.63,1.84,5.67,4.65,5.67S185.86,173.14,185.86,169.91Z" style="fill: #fff"/>
    <path d="M194.58,160.53h12.8l-1.46,4.05h-6.64v14.75h-4.69Z" style="fill: #fff"/>
    <path d="M215,186.28h-4.69V160.53H215v2.29h.08a6.78,6.78,0,0,1,5.67-2.74c5,0,8.67,4.09,8.67,9.83s-3.72,9.87-8.67,9.87a6.78,6.78,0,0,1-5.67-2.74H215Zm4.69-10.74c2.85,0,4.84-2.4,4.84-5.67s-2-5.59-4.84-5.59-4.88,2.4-4.88,5.59S216.88,175.54,219.73,175.54Z" style="fill: #fff"/>
    <path d="M232.2,173.55c0-3,2.4-6.12,8.26-6.12a28.92,28.92,0,0,1,3.45.23v-.53c0-2-1.54-2.93-3.42-2.93a8.38,8.38,0,0,0-4.65,1.5L233,162.85a11.93,11.93,0,0,1,7.66-2.78c4.84,0,8,2.7,8,7.13v12.12H244v-1.8h-.08a6.13,6.13,0,0,1-5.14,2.25A6.27,6.27,0,0,1,232.2,173.55ZM243.91,172v-.75a18.71,18.71,0,0,0-2.78-.26c-2.82,0-4.17,1-4.17,2.55,0,1.31,1.16,2.48,3,2.48A3.82,3.82,0,0,0,243.91,172Z" style="fill: #fff"/>
    <path d="M251.19,175.28h1.2c1.13-.56,1.73-2.7,2-4.8.49-3.42.9-9.95.9-9.95h13.81v14.75h3.12v8.82h-4.39v-4.77H255.58v4.77h-4.39Zm6.38,0h6.87v-10.7h-5c-.15,1.8-.34,4.24-.56,6.16a12.19,12.19,0,0,1-1.35,4.47Z" style="fill: #fff"/>
    <path d="M275.26,167.32h10.55v4.77H275.26Z" style="fill: #fff"/>
    <path d="M291.14,153.06h4.92v10.55h3l7.77-10.55h5.82l-9.31,12.2L314,179.33h-6.27L299.32,168h-3.27v11.37h-4.92Z" style="fill: #fff"/>
    <path d="M321.25,186.28h-4.69V160.53h4.69v2.29h.08a6.78,6.78,0,0,1,5.67-2.74c5,0,8.67,4.09,8.67,9.83s-3.72,9.87-8.67,9.87a6.78,6.78,0,0,1-5.67-2.74h-.08Zm4.69-10.74c2.85,0,4.84-2.4,4.84-5.67s-2-5.59-4.84-5.59-4.88,2.4-4.88,5.59S323.09,175.54,325.94,175.54Z" style="fill: #fff"/>
    <path d="M346.74,171.86h-2.51v7.47h-4.69V160.53h4.69v7.06h2.59a9.15,9.15,0,0,1,8.9-7.51c5,0,9.16,4.09,9.16,9.83s-4.17,9.87-9.16,9.87A9.19,9.19,0,0,1,346.74,171.86Zm13.33-2c0-3.27-1.84-5.63-4.35-5.63s-4.39,2.36-4.39,5.63,1.84,5.63,4.39,5.63S360.06,173.14,360.06,169.91Z" style="fill: #fff"/>
    <path d="M368.51,160.53h4.69v7.36h1.91l4.5-7.36h5.25l-5.63,8.9,6.72,9.91h-5.44l-5-7.54h-2.33v7.54h-4.69Z" style="fill: #fff"/>
    <path d="M386.8,169.91c0-5.74,4-9.83,9.5-9.83s9.5,4.09,9.5,9.83-4.05,9.87-9.5,9.87S386.8,175.69,386.8,169.91Zm14.15,0c0-3.27-1.84-5.63-4.65-5.63s-4.66,2.36-4.66,5.63,1.84,5.67,4.66,5.67S400.95,173.14,400.95,169.91Z" style="fill: #fff"/>
    <path d="M409.66,179.33V160.53h8.15c4.24,0,7.13,1.8,7.13,5.07a4,4,0,0,1-2.59,3.68v.07a4.68,4.68,0,0,1,3.42,4.43c0,3.38-2.74,5.56-7,5.56Zm8-11.11c1.39,0,2.48-.56,2.48-1.84s-1.09-1.84-2.48-1.84h-3.27v3.68Zm.9,7.09c1.46,0,2.4-.75,2.4-1.84s-.94-1.88-2.4-1.88h-4.17v3.72Z" style="fill: #fff"/>
    <path d="M428.7,169.91c0-5.74,4-9.83,9.5-9.83s9.5,4.09,9.5,9.83-4.05,9.87-9.5,9.87S428.7,175.69,428.7,169.91Zm14.15,0c0-3.27-1.84-5.63-4.65-5.63s-4.65,2.36-4.65,5.63,1.84,5.67,4.65,5.67S442.85,173.14,442.85,169.91Z" style="fill: #fff"/>
  </g>
  <g>
    <path d="M64.25,215.35l11.31-16.53v-.09H65.22v-2.21H79v1.6L67.73,214.59v.09h11.4v2.21H64.25Z" style="fill: #fff"/>
    <path d="M83.39,210.06c.06,3.6,2.36,5.08,5,5.08a9.62,9.62,0,0,0,4.05-.76l.45,1.9a11.85,11.85,0,0,1-4.87.91c-4.5,0-7.19-3-7.19-7.38s2.6-7.89,6.86-7.89c4.78,0,6,4.2,6,6.89a10,10,0,0,1-.09,1.24Zm7.8-1.9c0-1.69-.69-4.32-3.69-4.32-2.69,0-3.87,2.48-4.08,4.32Z" style="fill: #fff"/>
    <path d="M97,195.43h2.66v21.46H97Z" style="fill: #fff"/>
    <path d="M105.66,210.06c.06,3.6,2.36,5.08,5,5.08a9.62,9.62,0,0,0,4.05-.76l.45,1.9a11.85,11.85,0,0,1-4.87.91c-4.5,0-7.19-3-7.19-7.38s2.6-7.89,6.86-7.89c4.78,0,6,4.2,6,6.89a10,10,0,0,1-.09,1.24Zm7.8-1.9c0-1.69-.69-4.32-3.69-4.32-2.69,0-3.87,2.48-4.08,4.32Z" style="fill: #fff"/>
    <path d="M119.32,206.22c0-1.51,0-2.75-.12-4h2.36l.15,2.42h.06a5.38,5.38,0,0,1,4.84-2.75c2,0,5.17,1.21,5.17,6.23v8.74h-2.66v-8.43c0-2.36-.88-4.32-3.39-4.32a3.78,3.78,0,0,0-3.57,2.72,3.83,3.83,0,0,0-.18,1.24v8.8h-2.66Z" style="fill: #fff"/>
    <path d="M149.34,209.45c0,5.41-3.75,7.77-7.28,7.77-4,0-7-2.9-7-7.53,0-4.9,3.2-7.77,7.25-7.77C146.5,201.93,149.34,205,149.34,209.45Zm-11.61.15c0,3.2,1.84,5.62,4.44,5.62s4.44-2.39,4.44-5.68c0-2.48-1.24-5.62-4.38-5.62S137.73,206.82,137.73,209.6Z" style="fill: #fff"/>
    <path d="M165.3,202.26c-.06,1.06-.12,2.24-.12,4v8.49c0,3.36-.66,5.41-2.09,6.68a7.76,7.76,0,0,1-5.32,1.75,9.44,9.44,0,0,1-4.87-1.21l.66-2a8.25,8.25,0,0,0,4.29,1.15c2.72,0,4.72-1.42,4.72-5.11v-1.63h-.06a5.22,5.22,0,0,1-4.66,2.45c-3.63,0-6.23-3.08-6.23-7.13,0-5,3.23-7.77,6.59-7.77a4.87,4.87,0,0,1,4.56,2.54h.06l.12-2.21ZM162.55,208a3.78,3.78,0,0,0-.15-1.21,3.83,3.83,0,0,0-3.72-2.81c-2.54,0-4.35,2.15-4.35,5.53,0,2.87,1.45,5.26,4.32,5.26a3.89,3.89,0,0,0,3.69-2.72,4.62,4.62,0,0,0,.21-1.42Z" style="fill: #fff"/>
    <path d="M169.41,206.82c0-1.72,0-3.2-.12-4.56h2.33l.09,2.87h.12a4.39,4.39,0,0,1,4.05-3.2,2.87,2.87,0,0,1,.76.09v2.51a4,4,0,0,0-.91-.09c-1.87,0-3.2,1.42-3.57,3.42a7.47,7.47,0,0,0-.12,1.24v7.8h-2.63Z" style="fill: #fff"/>
    <path d="M187.24,216.89,187,215h-.09a5.45,5.45,0,0,1-4.47,2.18A4.17,4.17,0,0,1,178,213c0-3.54,3.14-5.47,8.8-5.44v-.3c0-1.21-.33-3.39-3.32-3.39a7.29,7.29,0,0,0-3.81,1.09l-.6-1.75a9.08,9.08,0,0,1,4.81-1.3c4.47,0,5.56,3.05,5.56,6v5.47a20.57,20.57,0,0,0,.24,3.51Zm-.39-7.47c-2.9-.06-6.2.45-6.2,3.29a2.35,2.35,0,0,0,2.51,2.54,3.64,3.64,0,0,0,3.54-2.45,2.78,2.78,0,0,0,.15-.85Z" style="fill: #fff"/>
    <path d="M206.35,195.43v17.68c0,1.3,0,2.78.12,3.78h-2.39l-.12-2.54h-.06a5.41,5.41,0,0,1-5,2.87c-3.54,0-6.26-3-6.26-7.44,0-4.87,3-7.86,6.56-7.86a4.89,4.89,0,0,1,4.41,2.24h.06v-8.74Zm-2.66,12.79a4.72,4.72,0,0,0-.12-1.12,3.91,3.91,0,0,0-3.84-3.08c-2.75,0-4.38,2.42-4.38,5.65,0,3,1.45,5.41,4.32,5.41a4,4,0,0,0,3.9-3.17,4.64,4.64,0,0,0,.12-1.15Z" style="fill: #fff"/>
    <path d="M216.92,207.73v2h-7.47v-2Z" style="fill: #fff"/>
    <path d="M220.13,196.52h2.63v9.82h.09c.54-.79,1.09-1.51,1.6-2.18l6.23-7.65h3.26l-7.37,8.64,7.95,11.73H231.4l-6.71-10-1.93,2.24v7.77h-2.63Z" style="fill: #fff"/>
    <path d="M236.72,206.82c0-1.72,0-3.2-.12-4.56h2.33l.09,2.87h.12a4.39,4.39,0,0,1,4-3.2,2.87,2.87,0,0,1,.76.09v2.51a4,4,0,0,0-.91-.09c-1.87,0-3.21,1.42-3.57,3.42a7.47,7.47,0,0,0-.12,1.24v7.8h-2.63Z" style="fill: #fff"/>
    <path d="M248.33,202.26l3.2,8.64c.33,1,.7,2.12.94,3h.06c.27-.88.57-2,.94-3.05l2.9-8.58h2.81l-4,10.43c-1.9,5-3.2,7.59-5,9.16a7.21,7.21,0,0,1-3.26,1.72l-.67-2.24a7,7,0,0,0,2.33-1.3,8.06,8.06,0,0,0,2.24-3,1.92,1.92,0,0,0,.21-.63,2.31,2.31,0,0,0-.18-.7l-5.41-13.48Z" style="fill: #fff"/>
    <path d="M273.84,212.9c0,1.51,0,2.84.12,4H271.6l-.15-2.39h-.06a5.51,5.51,0,0,1-4.84,2.72c-2.3,0-5-1.27-5-6.41v-8.55h2.66v8.1c0,2.78.85,4.66,3.26,4.66a3.84,3.84,0,0,0,3.51-2.42,3.89,3.89,0,0,0,.24-1.36v-9h2.66Z" style="fill: #fff"/>
    <path d="M280.88,209h.06c.36-.51.88-1.15,1.3-1.66l4.29-5h3.2l-5.65,6,6.44,8.62h-3.23l-5-7-1.36,1.51v5.5h-2.63V195.43h2.63Z" style="fill: #fff"/>
    <path d="M305.67,209.45c0,5.41-3.75,7.77-7.28,7.77-4,0-7-2.9-7-7.53,0-4.9,3.2-7.77,7.25-7.77C302.82,201.93,305.67,205,305.67,209.45Zm-11.61.15c0,3.2,1.84,5.62,4.44,5.62s4.44-2.39,4.44-5.68c0-2.48-1.24-5.62-4.38-5.62S294.06,206.82,294.06,209.6Z" style="fill: #fff"/>
    <path d="M309.84,202.26l2.87,8.22a37.82,37.82,0,0,1,1.18,3.75H314c.33-1.21.76-2.42,1.24-3.75l2.84-8.22h2.78l-5.74,14.63h-2.54L307,202.26Z" style="fill: #fff"/>
    <path d="M336.28,209.45c0,5.41-3.75,7.77-7.29,7.77-4,0-7-2.9-7-7.53,0-4.9,3.2-7.77,7.25-7.77C333.44,201.93,336.28,205,336.28,209.45Zm-11.61.15c0,3.2,1.84,5.62,4.44,5.62s4.44-2.39,4.44-5.68c0-2.48-1.24-5.62-4.38-5.62S324.68,206.82,324.68,209.6Z" style="fill: #fff"/>
  </g>
</svg>
